<?xml version="1.0" standalone="no"?>
<!DOCTYPE svg PUBLIC "-//W3C//DTD SVG 20010904//EN"
 "http://www.w3.org/TR/2001/REC-SVG-20010904/DTD/svg10.dtd">
<svg version="1.0" xmlns="http://www.w3.org/2000/svg"
 width="512.000000pt" height="512.000000pt" viewBox="0 0 512.000000 512.000000"
 preserveAspectRatio="xMidYMid meet">

<g transform="translate(0.000000,512.000000) scale(0.100000,-0.100000)"
fill="#000000" stroke="none">
<path d="M2140 5109 c-498 -27 -883 -98 -998 -186 -63 -48 -72 -74 -72 -213 0
-497 86 -1083 216 -1475 119 -362 260 -623 455 -846 l58 -66 -20 -124 c-11
-68 -23 -151 -26 -184 -8 -90 7 -101 173 -120 367 -42 874 -45 1229 -5 44 4
81 7 82 6 2 -1 34 -205 73 -452 38 -247 72 -461 74 -476 5 -26 3 -27 -62 -37
-284 -46 -1266 -46 -1521 -1 -30 6 -57 12 -60 15 -2 3 21 172 53 376 32 204
55 381 52 395 -8 29 -53 53 -85 45 -53 -14 -54 -22 -165 -739 -58 -375 -106
-699 -106 -720 0 -64 20 -113 66 -162 25 -27 66 -57 93 -69 172 -74 1161 -95
1656 -36 153 18 233 54 282 127 63 95 67 51 -76 973 -71 457 -141 912 -156
1013 l-26 182 54 63 c120 139 194 251 285 433 233 467 359 1059 379 1784 l6
236 -34 38 c-67 77 -235 134 -517 175 -74 11 -141 17 -150 14 -45 -16 -64 -60
-46 -107 10 -27 35 -34 179 -56 151 -23 297 -58 360 -85 l40 -17 -51 -23
c-100 -46 -341 -89 -649 -117 -191 -18 -1069 -18 -1260 0 -232 21 -417 49
-525 78 -82 22 -160 55 -154 65 9 15 164 59 297 83 302 56 746 82 1192 71 375
-10 364 -10 389 14 25 25 24 78 -2 104 -18 17 -41 20 -198 28 -216 10 -585 9
-784 -2z m-843 -489 c147 -46 440 -88 758 -110 203 -14 823 -14 1020 0 316 22
569 58 728 105 48 14 90 25 94 25 3 0 3 -42 -1 -92 -7 -107 -8 -109 -106 -139
-252 -78 -689 -121 -1230 -121 -541 0 -978 43 -1230 121 -98 30 -99 32 -106
139 -4 52 -3 92 2 92 5 0 37 -9 71 -20z m63 -374 c47 -13 124 -29 172 -36 48
-7 92 -16 98 -20 9 -6 -4 -150 -51 -561 -34 -305 -64 -556 -66 -559 -8 -9 -23
28 -72 175 -99 299 -161 603 -196 969 -6 64 -6 68 12 62 10 -4 56 -18 103 -30z
m2515 -33 c-35 -369 -98 -676 -198 -973 -45 -136 -52 -151 -59 -125 -4 17 -35
264 -68 550 -41 355 -56 521 -49 526 6 3 54 13 107 22 54 9 133 27 177 41 44
13 84 24 88 25 5 0 6 -29 2 -66z m-1810 -63 c66 -5 182 -10 257 -10 84 0 139
-4 143 -10 6 -10 -265 -1453 -271 -1447 -4 3 -374 1471 -374 1481 0 3 28 4 63
1 34 -3 116 -10 182 -15z m1244 -12 c-5 -18 -88 -348 -185 -733 -97 -385 -179
-703 -183 -707 -6 -7 -274 1370 -275 1416 -1 20 4 21 204 28 113 4 243 12 290
17 47 4 102 9 122 10 l37 1 -10 -32z m-1375 -1047 l175 -693 -29 6 c-16 3 -60
8 -97 12 -64 6 -70 9 -114 53 -95 98 -229 299 -229 345 0 27 93 861 106 946 4
25 8 41 10 35 2 -5 82 -322 178 -704z m771 3 c73 -384 131 -701 128 -704 -8
-9 -526 -12 -533 -3 -4 4 39 247 95 538 56 292 117 608 135 703 18 95 35 171
37 169 2 -3 64 -319 138 -703z m737 210 l57 -486 -55 -88 c-62 -100 -126 -189
-188 -257 -42 -46 -43 -47 -132 -59 -49 -6 -91 -10 -93 -8 -6 5 343 1384 349
1384 3 0 31 -219 62 -486z m-1327 -1056 c162 -19 784 -16 940 4 66 9 121 15
123 13 5 -4 32 -176 32 -201 0 -20 -8 -22 -167 -34 -287 -23 -966 -14 -1109
15 -21 5 -21 6 -7 102 19 129 18 126 50 119 16 -3 78 -11 138 -18z m-223
-1479 c349 -35 1251 -25 1485 17 36 7 36 7 53 -110 15 -103 11 -106 -204 -126
-65 -6 -127 -17 -138 -23 -38 -24 -37 -90 3 -119 24 -18 31 -18 175 -4 83 8
162 20 177 25 l26 10 8 -62 c21 -165 -11 -183 -367 -207 -517 -35 -1303 -11
-1407 44 -55 28 -67 56 -59 138 3 39 9 74 12 79 2 4 17 4 32 -2 75 -29 675
-64 983 -57 174 3 191 5 210 24 27 28 28 79 1 106 -20 20 -29 21 -234 19 -353
-3 -875 30 -941 60 -22 10 -27 18 -23 38 3 14 10 59 17 100 l11 73 39 -6 c21
-3 84 -11 141 -17z"/>
</g>
</svg>
