<?xml version="1.0" standalone="no"?>
<!DOCTYPE svg PUBLIC "-//W3C//DTD SVG 20010904//EN"
 "http://www.w3.org/TR/2001/REC-SVG-20010904/DTD/svg10.dtd">
<svg version="1.0" xmlns="http://www.w3.org/2000/svg"
 width="50.000000pt" height="50.000000pt" viewBox="0 0 50.000000 50.000000"
 preserveAspectRatio="xMidYMid meet">

<g transform="translate(0.000000,50.000000) scale(0.100000,-0.100000)"
fill="#000000" stroke="none">
<path d="M212 428 c-15 -15 -16 -54 -2 -63 6 -3 10 -13 10 -22 0 -12 -7 -14
-29 -10 -31 6 -52 -8 -44 -29 3 -8 20 -14 40 -14 36 0 36 0 29 -37 -3 -21 -6
-53 -6 -70 0 -28 -3 -33 -25 -33 -43 0 -86 61 -52 73 16 6 -13 62 -33 62 -20
0 -49 -53 -34 -63 7 -4 17 -25 23 -48 14 -52 34 -69 104 -93 56 -18 58 -18
114 0 70 24 90 41 104 93 6 23 16 44 23 48 15 10 -14 63 -34 63 -20 0 -49 -56
-32 -62 33 -12 -10 -73 -53 -73 -22 0 -25 5 -25 33 0 17 -3 49 -6 70 -7 37 -7
37 29 37 20 0 37 6 40 14 8 21 -13 35 -44 29 -32 -6 -37 5 -17 36 19 31 -4 71
-40 71 -15 0 -33 -5 -40 -12z m69 -14 c10 -12 10 -20 1 -35 -7 -10 -12 -28
-12 -39 0 -16 7 -20 35 -20 19 0 35 -4 35 -9 0 -6 -16 -7 -35 -4 l-35 6 0 -45
c0 -25 3 -67 6 -93 7 -46 8 -47 38 -41 36 8 76 43 76 68 0 10 5 18 10 18 14 0
2 -49 -19 -80 -10 -14 -38 -32 -62 -40 -24 -8 -50 -19 -56 -23 -7 -5 -19 -5
-25 0 -7 4 -33 15 -57 23 -24 8 -52 26 -62 40 -21 31 -33 80 -19 80 5 0 10 -8
10 -18 0 -25 40 -60 76 -68 30 -6 31 -5 38 41 3 26 6 68 6 93 l0 45 -35 -6
c-19 -3 -35 -2 -35 4 0 5 16 9 35 9 28 0 35 4 35 20 0 11 -5 29 -12 39 -14 23
3 51 32 51 10 0 23 -7 31 -16z m-162 -162 c9 -16 6 -19 -19 -19 -25 0 -28 3
-19 19 12 23 26 23 38 0z m300 0 c9 -16 6 -19 -19 -19 -25 0 -28 3 -19 19 12
23 26 23 38 0z"/>
<path d="M237 414 c-16 -16 -7 -44 14 -44 15 0 20 5 17 22 -3 22 -19 33 -31
22z m23 -24 c0 -5 -4 -10 -10 -10 -5 0 -10 5 -10 10 0 6 5 10 10 10 6 0 10 -4
10 -10z"/>
</g>
</svg>
