<?xml version="1.0" standalone="no"?>
<!DOCTYPE svg PUBLIC "-//W3C//DTD SVG 20010904//EN"
 "http://www.w3.org/TR/2001/REC-SVG-20010904/DTD/svg10.dtd">
<svg version="1.0" xmlns="http://www.w3.org/2000/svg"
 width="50.000000pt" height="50.000000pt" viewBox="0 0 50.000000 50.000000"
 preserveAspectRatio="xMidYMid meet">

<g transform="translate(0.000000,50.000000) scale(0.100000,-0.100000)"
fill="#000000" stroke="none">
<path d="M25 470 c-4 -6 -1 -18 6 -26 6 -8 20 -74 30 -146 l19 -132 -30 -31
c-17 -17 -30 -34 -30 -37 0 -3 14 -8 30 -12 24 -4 32 -12 36 -36 4 -16 9 -30
12 -30 3 0 20 13 37 30 l31 30 132 -19 c72 -10 138 -24 147 -31 22 -18 44 2
26 24 -8 10 -10 36 -5 88 8 89 -12 171 -50 207 -28 26 -26 38 9 51 23 9 62 67
52 77 -9 8 -68 -28 -74 -45 -15 -41 -24 -43 -59 -13 -43 38 -121 55 -212 45
-47 -4 -72 -3 -76 5 -9 14 -23 14 -31 1z m288 -51 c20 -11 37 -26 37 -34 0
-17 -12 -19 -26 -5 -5 5 -34 23 -64 40 -51 29 -52 31 -20 24 19 -3 52 -15 73
-25z m-67 -14 c100 -51 101 -43 -6 -150 -52 -52 -99 -95 -105 -95 -29 1 -39
23 -51 116 -7 55 -16 111 -18 127 l-5 27 67 0 c53 0 79 -6 118 -25z m173 -92
c10 -21 22 -54 25 -73 7 -33 5 -31 -23 19 -17 29 -35 59 -41 66 -10 12 -4 25
11 25 5 0 17 -17 28 -37z m-29 -40 c31 -50 35 -67 39 -136 3 -73 2 -79 -15
-74 -11 3 -59 11 -109 17 -126 16 -133 17 -140 41 -6 18 10 38 86 115 52 52
96 94 99 94 3 0 21 -26 40 -57z m-270 -130 c0 -12 -33 -43 -47 -43 -17 0 -17
10 4 32 16 18 43 25 43 11z m30 -35 c0 -14 -30 -48 -42 -48 -13 0 -9 22 9 42
18 21 33 23 33 6z"/>
</g>
</svg>
