<?xml version="1.0" standalone="no"?>
<!DOCTYPE svg PUBLIC "-//W3C//DTD SVG 20010904//EN"
 "http://www.w3.org/TR/2001/REC-SVG-20010904/DTD/svg10.dtd">
<svg version="1.0" xmlns="http://www.w3.org/2000/svg"
 width="457.000000pt" height="546.000000pt" viewBox="0 0 457.000000 546.000000"
 preserveAspectRatio="xMidYMid meet">

<g transform="translate(0.000000,546.000000) scale(0.100000,-0.100000)"
fill="#000000" stroke="none">
<path d="M2148 4590 c-2 -6 -44 -19 -93 -30 -50 -10 -92 -19 -95 -20 -3 -1
-12 -2 -20 -1 -8 1 -49 -27 -90 -61 -61 -52 -81 -76 -109 -133 -18 -39 -48
-99 -66 -135 -18 -36 -36 -80 -40 -98 -6 -31 -49 -69 -95 -84 -8 -2 -19 -24
-25 -49 -8 -34 -18 -48 -43 -60 -63 -32 -64 -34 -57 -133 6 -81 4 -95 -14
-123 -11 -18 -25 -33 -30 -33 -4 0 -11 -13 -14 -29 -4 -17 -24 -46 -48 -68
-45 -42 -66 -80 -50 -96 5 -5 7 -16 4 -23 -7 -20 4 -17 27 6 24 24 43 25 64 4
23 -23 21 -28 -33 -84 -44 -45 -49 -54 -40 -76 15 -42 10 -80 -15 -105 -13
-13 -35 -47 -50 -76 -21 -43 -26 -66 -26 -125 l1 -73 21 40 21 40 14 -69 c10
-50 11 -71 3 -76 -7 -4 6 -29 36 -70 36 -50 48 -74 54 -121 5 -32 11 -63 14
-68 3 -5 -1 -39 -9 -76 -14 -60 -14 -70 -1 -90 17 -26 11 -36 -39 -56 -17 -6
-25 -13 -17 -16 7 -3 31 2 52 11 25 10 40 12 40 5 0 -6 10 -9 23 -7 19 3 22
-2 25 -40 3 -39 -1 -47 -35 -79 -21 -19 -62 -46 -90 -59 -29 -13 -53 -26 -53
-29 0 -4 5 -3 10 0 18 11 10 -11 -10 -30 -24 -22 -27 -80 -5 -89 8 -3 15 -14
15 -25 0 -11 10 -36 21 -56 19 -31 20 -40 9 -60 -7 -14 -10 -38 -6 -62 3 -21
6 -59 7 -85 1 -46 1 -47 28 -35 14 6 40 21 56 33 38 27 75 39 75 24 0 -6 -29
-24 -65 -40 -64 -29 -90 -58 -40 -46 17 4 25 2 25 -7 0 -11 12 -11 73 -1 98
18 113 18 98 0 -7 -8 -31 -24 -54 -36 -23 -11 -58 -31 -78 -43 -41 -25 -124
-107 -109 -107 19 0 10 -21 -15 -32 -14 -6 -25 -17 -25 -25 0 -7 -6 -13 -12
-13 -9 0 -8 -4 2 -10 13 -9 13 -11 0 -20 -12 -7 -12 -10 -1 -10 8 0 11 -6 7
-16 -5 -13 -2 -15 14 -11 24 6 26 -6 4 -27 -14 -15 -14 -16 1 -16 12 0 16 -6
12 -19 -4 -18 -2 -18 27 -6 70 28 83 28 41 -2 -36 -25 -38 -28 -17 -31 12 -2
20 -8 17 -13 -9 -13 61 -11 125 5 30 7 80 27 111 45 31 17 65 31 77 31 14 0
22 6 22 18 0 10 7 4 16 -15 9 -18 21 -30 26 -27 6 4 8 -2 3 -15 -4 -13 -2 -21
5 -21 7 0 9 -8 5 -20 -10 -33 26 -21 38 13 3 9 12 17 18 17 9 0 8 -4 0 -14
-10 -11 -8 -15 6 -18 15 -4 13 -7 -9 -18 -16 -7 -28 -17 -28 -22 0 -11 17 -10
25 2 9 14 45 12 45 -2 0 -10 3 -9 9 1 7 11 11 10 19 -4 7 -14 17 -17 46 -12
31 5 36 3 36 -14 0 -22 0 -22 34 -9 30 11 32 8 10 -15 -25 -24 -8 -31 31 -12
41 19 44 16 13 -14 l-23 -21 25 12 c15 8 25 9 27 3 4 -11 52 -5 70 9 7 6 14 5
18 -2 4 -7 18 -9 33 -5 26 6 26 6 8 -14 -16 -18 -17 -21 -3 -21 11 0 14 -6 9
-22 -5 -22 -5 -23 15 -5 25 22 42 5 22 -20 -12 -14 -10 -15 20 -8 27 6 33 4
29 -6 -17 -45 230 25 272 77 20 23 72 47 79 36 3 -5 13 -11 21 -14 10 -3 5
-10 -17 -22 -18 -9 -33 -23 -33 -32 0 -8 -7 -17 -15 -21 -18 -6 -55 -77 -59
-111 -3 -16 1 -22 11 -18 11 4 11 1 3 -15 -10 -18 -9 -19 17 -14 l28 6 -25
-22 -25 -22 23 8 c21 6 23 5 13 -13 -16 -31 -14 -32 24 -16 38 16 44 10 18
-18 -20 -23 -3 -24 40 -2 l32 17 -25 -28 -25 -28 25 13 c16 9 25 9 28 2 2 -7
13 -7 35 0 18 5 39 11 47 12 28 5 110 47 110 57 0 6 -31 54 -70 108 -38 54
-70 100 -70 102 0 10 119 2 132 -8 12 -10 15 -10 15 0 0 6 4 24 8 40 4 17 3
27 -3 27 -6 0 -18 15 -27 34 -34 71 -82 101 -222 137 -43 10 -79 24 -81 29 -2
6 -10 10 -17 10 -16 0 -48 39 -157 198 -13 19 -46 61 -73 95 -28 34 -66 87
-85 117 -19 30 -55 81 -81 114 -52 65 -77 118 -33 71 35 -37 40 -25 14 30 -14
29 -30 47 -45 51 -17 4 -26 17 -34 51 -7 25 -10 47 -8 49 2 2 34 -26 73 -61
79 -75 169 -132 234 -150 25 -7 76 -24 113 -38 37 -15 65 -23 63 -18 -7 11
-76 44 -175 83 -112 45 -221 132 -261 208 -8 14 -15 49 -16 78 -3 52 -56 172
-75 172 -5 0 -17 17 -28 38 -39 76 -61 125 -58 129 2 2 32 -34 67 -79 70 -92
197 -209 278 -257 63 -37 66 -37 50 -10 -7 12 -46 44 -87 71 -40 28 -85 60
-98 72 -43 36 -130 159 -138 194 -3 18 -12 38 -18 45 -42 45 -75 109 -86 167
-5 27 -9 35 -10 20 -1 -19 -4 -21 -10 -11 -5 8 -8 28 -6 45 2 17 10 86 16 154
7 67 16 122 20 122 3 0 9 23 11 50 3 28 7 53 10 55 3 3 20 -1 39 -9 19 -8 89
-18 155 -22 115 -6 125 -5 203 21 45 15 84 25 87 22 10 -10 -10 -38 -40 -56
-44 -27 -62 -64 -50 -98 10 -30 61 -53 74 -33 5 8 22 3 62 -19 30 -17 61 -31
69 -31 8 0 39 12 69 27 30 15 67 26 82 25 36 -3 78 37 78 73 0 31 -38 72 -77
81 -15 4 -34 14 -42 21 -7 8 -15 12 -17 10 -7 -6 9 -77 17 -77 5 0 9 5 9 10 0
18 39 11 61 -11 13 -13 19 -30 17 -47 -3 -26 -5 -27 -68 -27 -53 1 -66 -3 -72
-17 -4 -11 -18 -18 -32 -18 -14 0 -28 -5 -31 -10 -7 -11 -39 3 -63 27 -16 16
-64 17 -79 2 -16 -16 -33 -2 -33 25 0 23 28 55 67 75 37 19 83 211 59 249 -9
15 26 32 68 32 41 0 52 -15 55 -75 3 -74 14 -100 44 -100 31 -1 31 1 12 35
-17 29 -20 52 -4 30 9 -12 10 -11 6 8 -3 14 0 22 8 22 7 0 16 7 19 16 5 12 13
14 33 9 16 -4 29 -2 34 6 5 8 55 13 159 15 83 2 155 6 159 8 15 10 43 -20 50
-53 l6 -33 24 57 c26 64 20 97 -21 115 -23 10 -23 10 2 7 35 -3 60 -57 60
-131 0 -57 -2 -61 -45 -103 -25 -24 -51 -43 -58 -43 -6 -1 -25 -7 -42 -15
l-30 -15 40 6 c22 3 59 14 82 24 51 22 51 22 64 -105 20 -196 21 -259 5 -345
-18 -100 -37 -173 -49 -181 -4 -3 -9 -26 -9 -50 -1 -24 -9 -55 -18 -69 -49
-71 -57 -102 -59 -227 -3 -128 4 -148 34 -95 l16 27 -6 -44 c-42 -315 -57
-704 -31 -813 8 -31 12 -59 10 -61 -2 -2 -6 -18 -8 -35 -2 -18 -9 -39 -17 -48
-10 -13 -10 -17 1 -24 11 -7 11 -14 3 -34 -11 -23 -10 -25 28 -31 21 -4 41
-11 45 -16 3 -5 9 -7 13 -4 5 2 9 -6 9 -19 -1 -13 9 -33 21 -45 25 -25 28 -26
35 -4 3 10 3 -4 0 -32 -14 -129 -12 -135 34 -147 30 -8 29 12 -8 175 -16 73
-36 168 -44 212 -9 44 -29 147 -46 228 -18 82 -30 151 -27 153 4 4 71 -268 83
-339 3 -20 10 -40 15 -43 5 -3 7 -9 4 -14 -3 -5 3 -44 13 -87 11 -43 27 -121
37 -173 9 -52 19 -101 21 -107 6 -20 25 -15 31 8 4 12 11 18 20 15 9 -4 11 -2
7 6 -5 8 -2 9 9 5 9 -3 19 -1 23 5 5 7 2 8 -7 3 -12 -8 -12 -6 0 9 8 9 20 15
28 12 7 -3 19 7 28 25 9 16 41 47 72 67 110 73 124 83 143 102 31 31 61 93 49
100 -6 4 -4 12 6 20 20 17 19 34 -2 25 -42 -16 -47 -16 -23 3 24 20 24 21 6
41 -11 12 -25 21 -33 21 -7 0 -12 3 -11 7 4 17 -72 150 -101 176 -35 30 -38
44 -16 73 8 10 15 26 15 33 0 8 12 27 26 42 22 23 31 26 54 19 21 -6 32 -4 41
6 6 8 18 14 27 14 8 0 30 11 47 25 26 19 36 38 50 92 10 37 23 77 29 88 5 11
9 26 7 34 -1 9 3 12 13 8 23 -9 39 19 32 57 -5 24 -14 37 -28 42 -21 6 -20 8
13 35 19 16 28 29 21 29 -9 0 -11 7 -7 20 5 16 2 20 -19 20 -26 0 -36 23 -15
35 12 8 33 53 34 75 0 8 -10 26 -22 40 -24 26 -30 55 -13 65 16 10 12 35 -6
35 -27 0 -91 53 -103 85 -16 46 -14 71 13 121 l24 45 12 -35 c6 -20 15 -36 20
-36 4 0 13 21 19 46 10 37 14 44 25 34 8 -6 16 -7 19 -3 11 20 47 144 47 163
0 12 6 28 14 35 9 10 13 39 11 107 -3 109 -14 176 -26 157 -10 -17 -10 -17
-41 60 -27 68 -28 122 -1 86 7 -11 13 -14 13 -7 0 16 -23 65 -37 80 -7 7 -13
22 -13 33 0 10 -11 29 -25 41 -31 27 -35 73 -5 65 24 -6 27 15 5 33 -10 8 -15
31 -15 70 0 80 -4 87 -45 82 -34 -4 -35 -3 -35 32 0 26 -10 49 -35 82 -24 32
-35 56 -35 80 0 21 -6 37 -15 40 -35 14 -142 194 -189 317 -13 35 -36 76 -51
92 -21 21 -25 29 -15 35 9 6 -8 22 -58 55 -40 25 -72 50 -72 54 0 5 -15 14
-32 21 -18 8 -57 33 -85 57 -59 49 -157 103 -189 103 -12 0 -47 13 -79 29 -35
18 -67 27 -84 25 -35 -6 -32 -6 -143 2 -85 6 -98 5 -98 -8 0 -19 -28 -32 -44
-21 -13 10 -95 9 -118 -1 -9 -4 -54 2 -99 13 -94 24 -106 25 -111 11z m617
-10 c3 -5 1 -10 -4 -10 -6 0 -11 5 -11 10 0 6 2 10 4 10 3 0 8 -4 11 -10z
m-291 -712 c14 -75 55 -139 142 -222 71 -68 86 -87 80 -105 -3 -11 -9 -30 -12
-40 -6 -19 -4 -19 43 -4 78 25 185 42 226 36 21 -3 45 -15 55 -27 9 -12 32
-28 50 -35 24 -10 32 -19 30 -34 -5 -31 -34 -45 -60 -28 -43 27 -162 55 -229
55 -53 -1 -74 -6 -114 -30 -42 -24 -62 -29 -140 -32 -88 -4 -94 -3 -147 27
-55 31 -56 33 -52 69 10 74 15 87 25 71 7 -12 9 -12 9 0 0 22 40 60 56 54 12
-4 14 19 14 136 0 134 10 180 24 109z m406 -229 c19 -5 48 -18 64 -28 l29 -19
-76 -1 c-45 0 -91 -7 -113 -16 -20 -8 -40 -15 -44 -15 -12 0 -19 40 -13 72 6
30 6 30 62 23 31 -3 72 -10 91 -16z m-886 -108 c-3 -9 -8 -24 -11 -33 -3 -9
-24 -23 -48 -32 l-43 -14 19 56 c11 31 24 59 31 63 18 11 60 -21 52 -40z m216
35 c0 -8 -4 -17 -9 -21 -12 -7 -24 12 -16 25 9 15 25 12 25 -4z m889 -47 c12
-11 21 -24 21 -30 0 -14 -30 4 -59 34 -22 24 -22 25 -3 20 11 -2 30 -14 41
-24z m-889 -14 c7 -8 21 -15 31 -15 20 0 37 -20 17 -21 -7 0 5 -6 27 -13 76
-25 115 -46 115 -62 0 -18 -22 -13 -84 18 -91 46 -301 -22 -283 -92 6 -25 -7
-33 -50 -32 -18 1 -33 -3 -33 -8 0 -11 20 -13 103 -10 37 1 57 -2 57 -9 0 -13
97 -5 115 9 6 4 25 11 43 15 25 5 32 12 32 31 0 29 20 31 44 5 10 -11 28 -18
43 -16 21 2 24 -1 20 -21 -2 -13 0 -21 4 -18 21 13 6 -19 -25 -54 -52 -57
-106 -72 -263 -72 l-132 0 -34 33 c-31 28 -36 40 -42 98 -4 36 -3 85 2 110 7
38 14 47 48 63 22 11 69 23 105 26 41 5 51 8 28 9 -47 1 -49 15 -5 29 49 15
103 14 117 -3z m636 -144 c-15 -14 -18 -14 -26 -1 -7 11 -4 17 8 21 26 10 36
-1 18 -20z m-419 -58 c-3 -10 -5 -2 -5 17 0 19 2 27 5 18 2 -10 2 -26 0 -35z
m-262 -14 c12 -19 -5 -23 -22 -6 -16 16 -16 17 -1 17 9 0 20 -5 23 -11z m-275
-136 l-8 -28 -1 26 c-1 15 -3 42 -7 60 l-5 34 15 -32 c10 -22 12 -41 6 -60z
m1344 50 c3 -21 6 -58 5 -83 l0 -45 -14 37 c-19 51 -23 128 -6 128 4 0 11 -17
15 -37z m169 -140 c7 -38 -3 -98 -14 -81 -6 8 -9 0 -9 -23 0 -20 -3 -39 -7
-43 -12 -11 -14 -48 -3 -61 7 -8 4 -17 -8 -29 -26 -22 -31 -13 -20 37 5 23 12
74 14 112 7 97 35 150 47 88z m-1596 -155 c-2 -13 -4 -3 -4 22 0 25 2 35 4 23
2 -13 2 -33 0 -45z m13 -95 c0 -16 3 -39 6 -53 5 -19 4 -22 -5 -14 -17 16 -27
94 -12 94 6 0 11 -12 11 -27z m1553 -59 c10 -10 -4 -33 -17 -28 -7 3 -18 -7
-25 -22 -6 -15 -14 -24 -18 -21 -6 7 38 77 48 77 3 0 8 -3 12 -6z m47 -309 c0
-17 34 -37 45 -27 5 4 5 -1 2 -11 -4 -10 -7 -27 -7 -38 0 -25 -44 -43 -69 -29
-22 11 -45 64 -37 85 3 9 16 20 28 25 32 13 38 12 38 -5z m430 -272 c0 -13 -3
-13 -15 -3 -8 7 -15 19 -15 27 0 13 3 13 15 3 8 -7 15 -19 15 -27z m-1760
-234 c0 -6 -4 -7 -10 -4 -5 3 -10 11 -10 16 0 6 5 7 10 4 6 -3 10 -11 10 -16z
m-666 -264 c-6 -16 -24 -21 -24 -7 0 11 11 22 21 22 5 0 6 -7 3 -15z m1885
-298 c16 -20 2 -120 -15 -113 -9 3 -13 -1 -11 -12 4 -35 -18 -21 -25 15 -4 21
-10 50 -14 66 -11 45 36 78 65 44z m-165 -82 c21 -83 21 -106 0 -98 -8 3 -13
12 -10 20 3 8 1 11 -4 8 -6 -3 -10 -3 -10 2 0 4 -3 19 -7 32 -4 15 -2 22 4 18
6 -4 5 8 -2 31 -7 20 -11 40 -8 44 11 19 22 3 37 -57z m119 -81 c3 -3 3 -12 0
-20 -4 -11 -9 -12 -19 -3 -8 6 -11 15 -8 20 6 10 18 12 27 3z m-503 -66 c0 -5
-5 -8 -11 -8 -7 0 -9 -10 -7 -25 5 -25 -5 -34 -17 -15 -3 5 -12 7 -19 4 -13
-5 -46 30 -46 48 0 4 22 6 50 5 27 -1 50 -5 50 -9z m409 -19 c12 -11 21 -28
19 -37 -5 -24 -50 -46 -79 -39 -22 6 -25 11 -21 39 8 61 40 75 81 37z"/>
<path d="M1243 3254 c-7 -18 13 -42 24 -29 5 4 3 10 -4 12 -7 2 -9 11 -6 19 3
8 2 14 -1 14 -4 0 -9 -7 -13 -16z"/>
<path d="M2808 3153 c12 -2 30 -2 40 0 9 3 -1 5 -23 4 -22 0 -30 -2 -17 -4z"/>
<path d="M3871 3140 c0 -8 6 -26 14 -40 8 -14 14 -19 14 -10 0 8 -6 26 -14 40
-8 14 -14 19 -14 10z"/>
<path d="M1221 2864 c0 -11 3 -14 6 -6 3 7 2 16 -1 19 -3 4 -6 -2 -5 -13z"/>
<path d="M2578 2834 c-16 -8 -28 -19 -28 -24 0 -16 -19 -11 -51 12 -28 21 -33
21 -99 10 -38 -7 -101 -27 -140 -44 -64 -30 -70 -35 -65 -57 7 -27 50 -92 88
-132 14 -14 45 -31 69 -38 53 -15 134 -11 131 6 -4 18 130 73 177 73 30 0 14
-23 -28 -42 l-37 -16 38 -1 c48 -1 125 37 184 92 39 36 73 83 73 102 0 13 -97
48 -169 61 -96 17 -110 17 -143 -2z m55 -19 c-3 -9 -8 -14 -10 -11 -3 3 -2 9
2 15 9 16 15 13 8 -4z m200 -64 c11 -10 -39 -43 -61 -40 -9 1 -25 -1 -35 -6
-10 -4 -21 -5 -24 -1 -3 3 -12 1 -20 -5 -7 -7 -39 -13 -71 -16 -31 -2 -74 -11
-95 -19 -45 -17 -77 -18 -77 -3 0 8 -5 7 -16 -2 -14 -11 -18 -11 -29 4 -9 13
-14 14 -17 6 -3 -8 -9 -9 -18 -4 -8 5 -25 10 -39 11 -13 2 -28 9 -32 16 -4 7
-17 13 -28 13 -26 0 -28 20 -2 20 10 1 25 6 33 12 15 13 136 21 153 11 6 -3
53 0 105 7 97 12 258 10 273 -4z"/>
<path d="M2112 2821 c-8 -5 -12 -22 -10 -42 l3 -34 11 43 c6 23 11 42 10 42
-1 0 -7 -4 -14 -9z"/>
<path d="M2850 2350 c-19 -10 -44 -27 -55 -37 -39 -37 -136 -93 -180 -104 -78
-20 -170 -7 -251 35 -39 20 -75 36 -79 36 -18 0 62 -64 105 -84 53 -24 198
-29 265 -9 64 20 255 147 255 170 0 18 -18 16 -60 -7z"/>
<path d="M1356 2301 c-11 -12 -17 -23 -14 -26 8 -9 41 21 37 34 -3 9 -11 6
-23 -8z"/>
<path d="M1305 2249 c-11 -17 1 -21 15 -4 8 9 8 15 2 15 -6 0 -14 -5 -17 -11z"/>
<path d="M2950 1070 c0 -14 7 -20 24 -20 19 0 23 4 19 20 -3 11 -14 20 -24 20
-12 0 -19 -7 -19 -20z"/>
</g>
</svg>
