<?xml version="1.0" standalone="no"?>
<!DOCTYPE svg PUBLIC "-//W3C//DTD SVG 20010904//EN"
 "http://www.w3.org/TR/2001/REC-SVG-20010904/DTD/svg10.dtd">
<svg version="1.0" xmlns="http://www.w3.org/2000/svg"
 width="512.000000pt" height="512.000000pt" viewBox="0 0 512.000000 512.000000"
 preserveAspectRatio="xMidYMid meet">

<g transform="translate(0.000000,512.000000) scale(0.100000,-0.100000)"
fill="#000000" stroke="none">
<path d="M3735 5110 c-278 -40 -521 -162 -717 -362 -199 -203 -316 -467 -343
-773 -4 -44 -9 -83 -11 -87 -3 -3 -47 20 -99 53 -302 190 -597 318 -841 365
-120 23 -299 23 -384 0 -153 -41 -276 -138 -339 -268 -90 -183 -79 -449 32
-759 l34 -96 -79 -33 c-204 -84 -433 -253 -585 -429 -474 -550 -534 -1342
-150 -1953 175 -278 443 -508 737 -632 739 -314 1579 -64 2019 600 36 55 91
152 121 215 l54 116 106 -38 c178 -63 294 -84 455 -83 126 0 148 3 219 27 141
49 237 131 296 251 45 94 60 167 61 297 0 292 -127 641 -383 1048 -32 52 -57
95 -56 96 2 1 54 8 115 14 296 30 536 139 740 333 349 334 469 820 317 1280
-131 398 -472 702 -894 799 -97 22 -330 33 -425 19z m318 -305 c367 -64 652
-332 744 -701 27 -108 24 -325 -5 -434 -77 -286 -289 -528 -555 -630 -93 -36
-182 -55 -332 -70 -305 -31 -586 -129 -820 -289 -50 -34 -104 -72 -120 -86
l-31 -24 -188 188 -188 188 49 64 c212 273 327 562 363 914 29 283 113 470
286 636 81 76 133 113 229 161 178 89 372 117 568 83z m-2338 -805 c228 -53
558 -212 803 -387 73 -52 72 -42 5 -178 -59 -117 -129 -217 -225 -321 -43 -47
-83 -96 -88 -110 -14 -37 -12 -91 4 -122 8 -15 158 -169 333 -343 342 -340
343 -341 423 -319 25 7 68 37 121 86 105 95 219 171 340 228 143 67 124 71
205 -52 155 -233 264 -449 329 -647 44 -135 58 -222 54 -335 -3 -78 -9 -105
-29 -144 -133 -257 -765 -72 -1403 411 -629 476 -1165 1189 -1313 1743 -31
114 -42 268 -25 337 41 165 196 216 466 153z m-430 -1238 c48 -79 85 -145 83
-146 -1 -1 -38 -15 -80 -30 -235 -84 -447 -281 -558 -519 -122 -260 -124 -575
-5 -843 91 -206 303 -414 512 -503 151 -65 211 -76 403 -76 205 0 284 16 437
90 243 118 436 335 517 583 10 28 21 52 25 52 4 0 35 -18 69 -39 33 -22 97
-60 141 -86 l80 -46 -15 -41 c-8 -22 -37 -84 -65 -138 -189 -361 -532 -616
-937 -697 -122 -24 -386 -24 -502 0 -313 66 -586 228 -779 462 -528 641 -360
1598 354 2018 70 41 214 107 227 104 3 -1 45 -66 93 -145z m385 -534 c131
-156 411 -435 561 -560 l117 -97 -9 -48 c-42 -224 -177 -405 -380 -510 -114
-59 -201 -77 -352 -71 -105 4 -134 9 -205 36 -557 208 -632 960 -127 1270 75
46 200 90 286 101 4 1 53 -54 109 -121z"/>
</g>
</svg>
