<?xml version="1.0" standalone="no"?>
<!DOCTYPE svg PUBLIC "-//W3C//DTD SVG 20010904//EN"
 "http://www.w3.org/TR/2001/REC-SVG-20010904/DTD/svg10.dtd">
<svg version="1.0" xmlns="http://www.w3.org/2000/svg"
 width="50.000000pt" height="50.000000pt" viewBox="0 0 50.000000 50.000000"
 preserveAspectRatio="xMidYMid meet">

<g transform="translate(0.000000,50.000000) scale(0.100000,-0.100000)"
fill="#000000" stroke="none">
<path d="M155 455 c-79 -41 -132 -146 -122 -242 7 -66 37 -116 90 -151 34 -23
51 -27 111 -27 86 0 152 29 200 88 57 71 38 185 -44 267 -68 68 -174 97 -235
65z m153 -31 c88 -44 149 -140 139 -217 -7 -53 -34 -78 -91 -84 -43 -5 -46 -4
-46 19 0 21 4 24 33 20 128 -15 52 198 -85 240 -103 31 -131 -54 -52 -158 20
-26 34 -54 32 -66 -3 -20 -4 -20 -35 6 -38 32 -83 119 -83 160 1 97 84 132
188 80z m1 -72 c47 -38 82 -99 79 -137 -3 -29 -5 -30 -49 -30 -25 0 -53 -6
-62 -14 -15 -12 -17 -10 -17 16 0 18 -9 38 -21 49 -43 39 -73 126 -51 148 15
16 85 -3 121 -32z m-184 -97 c10 -20 38 -56 62 -80 40 -40 42 -46 31 -69 -16
-37 -4 -43 45 -20 29 14 54 18 81 14 l39 -5 -38 -18 c-192 -91 -360 76 -268
268 l18 38 7 -46 c3 -24 14 -61 23 -82z m165 -118 c0 -8 -11 -19 -25 -25 -29
-13 -32 -6 -8 20 19 21 33 23 33 5z"/>
</g>
</svg>
