<?xml version="1.0" standalone="no"?>
<!DOCTYPE svg PUBLIC "-//W3C//DTD SVG 20010904//EN"
 "http://www.w3.org/TR/2001/REC-SVG-20010904/DTD/svg10.dtd">
<svg version="1.0" xmlns="http://www.w3.org/2000/svg"
 width="512.000000pt" height="512.000000pt" viewBox="0 0 512.000000 512.000000"
 preserveAspectRatio="xMidYMid meet">

<g transform="translate(0.000000,512.000000) scale(0.100000,-0.100000)"
fill="#000000" stroke="none">
<path d="M3977 4799 c-142 -33 -262 -163 -297 -320 -19 -87 -8 -255 25 -364
53 -178 209 -456 276 -491 28 -14 50 -15 134 -10 486 32 783 207 836 492 28
152 -60 331 -201 408 -66 36 -180 59 -247 51 -29 -4 -53 -3 -53 2 0 20 -93
128 -140 164 -89 66 -223 94 -333 68z m216 -172 c57 -34 104 -88 132 -152 33
-73 43 -79 118 -70 192 26 312 -33 353 -173 48 -164 -88 -328 -342 -410 -70
-23 -211 -47 -326 -57 l-77 -7 -47 72 c-65 101 -139 261 -163 354 -26 100 -28
223 -4 297 20 64 98 148 153 167 57 18 152 8 203 -21z"/>
<path d="M1103 4591 c-87 -14 -194 -51 -283 -97 -246 -127 -506 -402 -586
-620 -26 -71 -29 -91 -29 -199 0 -109 2 -125 27 -177 14 -31 45 -76 67 -101
43 -47 144 -107 180 -107 12 0 21 -4 21 -9 0 -6 -29 -69 -65 -142 -69 -140
-77 -177 -45 -209 25 -25 81 -27 102 -2 8 9 45 77 81 150 184 369 450 724 684
913 506 406 1288 277 1643 -273 l38 -57 -39 -42 c-21 -23 -56 -78 -78 -123
-101 -204 -108 -413 -20 -587 l31 -62 -36 -106 c-67 -204 -71 -420 -9 -615 39
-124 115 -267 180 -337 l23 -25 -65 -58 c-151 -134 -279 -339 -348 -561 -48
-154 -61 -240 -62 -406 l0 -156 32 -61 32 -62 -250 0 -249 0 31 53 c155 262
239 619 239 1012 0 148 -10 199 -40 215 -28 15 -66 12 -89 -7 -19 -17 -21 -31
-25 -238 -9 -424 -82 -702 -249 -958 l-51 -77 -187 0 -188 0 -7 57 c-4 32 -4
171 0 308 9 361 40 621 91 783 27 86 21 119 -26 136 -68 24 -99 -13 -137 -169
-52 -207 -75 -458 -76 -827 l-1 -288 -142 0 -143 0 -31 42 c-78 107 -146 277
-181 450 -19 97 -23 143 -22 328 0 151 5 243 17 308 16 96 15 114 -11 145 -17
19 -63 23 -92 7 -36 -20 -58 -141 -67 -380 -12 -323 45 -615 162 -827 19 -35
35 -66 35 -68 0 -12 -241 -3 -299 10 -204 49 -371 219 -418 427 -24 106 -24
577 0 778 39 324 108 643 197 904 38 113 39 148 4 175 -69 54 -106 12 -167
-189 -138 -458 -207 -899 -207 -1314 1 -403 49 -565 220 -736 86 -86 171 -139
285 -178 l80 -27 1905 0 1905 0 65 31 c80 38 149 105 187 182 25 51 28 70 31
172 4 143 -18 294 -47 323 -25 26 -74 26 -102 1 -19 -17 -20 -26 -15 -79 3
-33 9 -116 12 -185 7 -142 -2 -174 -68 -237 -53 -51 -101 -63 -259 -63 l-139
0 19 49 c48 121 69 343 48 515 -14 107 -70 147 -133 93 l-27 -23 12 -118 c19
-180 -4 -348 -64 -465 l-25 -51 -110 0 -110 0 0 315 0 316 -25 24 c-31 32 -69
32 -100 0 l-25 -24 0 -316 0 -315 -110 0 -110 0 -21 42 c-64 126 -88 285 -69
464 10 102 10 118 -4 139 -29 44 -93 45 -121 2 -20 -31 -38 -226 -30 -327 8
-98 29 -204 56 -272 l19 -48 -139 0 c-158 0 -206 12 -259 63 -58 56 -74 98
-73 199 2 244 82 506 213 695 54 78 155 187 201 218 25 16 27 16 79 -23 119
-90 281 -158 430 -182 49 -8 128 -11 215 -7 146 5 244 27 369 82 l57 25 25
-22 c33 -31 125 -172 155 -236 34 -72 54 -92 93 -92 36 0 74 37 74 73 0 30
-96 207 -156 287 l-54 72 88 86 c159 158 244 316 296 554 4 19 22 35 63 58
154 87 263 251 299 450 34 190 13 273 -88 341 -173 118 -382 160 -560 115
l-66 -17 -54 40 c-157 120 -399 195 -611 190 l-98 -3 -28 35 c-28 33 -29 38
-34 184 -6 170 -21 243 -75 354 -67 138 -185 231 -339 267 -128 30 -363 6
-522 -53 -18 -7 -41 0 -110 34 -183 92 -330 126 -563 128 l-177 2 -63 47 c-79
60 -201 119 -298 146 -84 23 -239 33 -317 21z m280 -166 c59 -15 210 -85 202
-93 -2 -2 -34 -15 -70 -27 -174 -61 -335 -167 -490 -322 -105 -105 -253 -288
-353 -435 -79 -116 -97 -129 -167 -109 -81 22 -145 104 -160 202 -20 134 96
353 278 526 167 158 332 248 512 277 51 8 187 -2 248 -19z m1763 -310 c156
-46 257 -202 271 -419 6 -85 5 -89 -13 -82 -85 33 -173 57 -233 62 -64 6 -74
10 -89 33 -80 131 -140 210 -219 290 -51 52 -92 96 -90 97 2 2 30 10 63 18 80
19 247 20 310 1z m138 -618 c66 -25 182 -95 172 -105 -3 -2 -41 -19 -84 -36
-152 -62 -292 -165 -403 -299 l-48 -57 -16 52 c-37 127 -9 280 78 427 l32 53
100 -5 c74 -3 118 -11 169 -30z m676 -243 c148 -37 318 -139 416 -247 154
-170 228 -364 227 -592 -1 -149 -23 -241 -93 -382 -103 -209 -312 -379 -539
-438 -169 -44 -332 -39 -491 15 -404 136 -654 554 -576 962 70 362 345 631
713 698 69 13 267 4 343 -16z m790 -191 c62 -17 141 -54 188 -90 30 -22 32
-28 32 -81 -1 -143 -57 -289 -148 -381 l-55 -56 -7 30 c-4 17 -13 65 -19 108
-22 141 -94 311 -182 428 l-40 54 38 6 c50 8 124 1 193 -18z"/>
<path d="M3222 2783 c-23 -20 -52 -109 -52 -160 0 -63 71 -96 118 -55 21 17
52 116 52 164 0 31 -39 68 -72 68 -14 0 -35 -8 -46 -17z"/>
<path d="M4303 2515 c-26 -11 -34 -23 -48 -72 -9 -32 -19 -66 -21 -76 -16 -53
47 -108 100 -88 29 12 45 42 67 129 12 48 11 54 -7 79 -27 35 -54 44 -91 28z"/>
<path d="M3447 2458 c-9 -7 -21 -26 -27 -41 -48 -131 94 -284 232 -249 39 10
45 9 68 -13 106 -101 290 -53 331 86 11 35 10 43 -8 67 -36 48 -106 42 -128
-12 -31 -74 -105 -56 -105 25 0 94 -108 121 -144 35 -17 -42 -48 -54 -81 -32
-20 13 -25 25 -25 61 0 32 -6 51 -20 65 -23 23 -68 26 -93 8z"/>
<path d="M1313 3678 c-24 -12 -35 -35 -57 -121 -21 -86 0 -127 64 -127 47 0
64 19 84 96 23 89 21 119 -10 143 -29 23 -48 25 -81 9z"/>
<path d="M1757 3408 c-52 -41 -27 -137 37 -138 16 0 17 -5 11 -37 -10 -59 -30
-83 -69 -83 -45 0 -66 26 -66 82 0 54 -30 88 -77 88 -47 0 -73 -38 -73 -107 0
-87 41 -153 122 -194 40 -20 120 -25 161 -10 20 8 29 5 48 -16 88 -94 258 -82
332 23 15 22 30 56 33 76 5 31 2 41 -20 63 -40 40 -81 32 -121 -25 -26 -37
-38 -46 -68 -48 -50 -4 -74 30 -61 91 9 42 9 42 56 45 37 2 52 9 68 29 50 64
12 102 -140 143 -128 33 -149 36 -173 18z"/>
<path d="M2483 3358 c-12 -13 -28 -56 -39 -101 -17 -76 -17 -78 3 -105 13 -17
31 -28 51 -30 48 -5 76 30 98 121 18 76 17 78 -3 105 -27 37 -80 42 -110 10z"/>
</g>
</svg>
