<?xml version="1.0" standalone="no"?>
<!DOCTYPE svg PUBLIC "-//W3C//DTD SVG 20010904//EN"
 "http://www.w3.org/TR/2001/REC-SVG-20010904/DTD/svg10.dtd">
<svg version="1.0" xmlns="http://www.w3.org/2000/svg"
 width="512.000000pt" height="512.000000pt" viewBox="0 0 512.000000 512.000000"
 preserveAspectRatio="xMidYMid meet">

<g transform="translate(0.000000,512.000000) scale(0.100000,-0.100000)"
fill="#000000" stroke="none">
<path d="M2377 4343 c-351 -351 -661 -667 -688 -703 -67 -89 -123 -199 -154
-305 -33 -110 -44 -286 -26 -401 24 -143 90 -300 175 -408 25 -33 46 -63 46
-68 0 -5 -11 -25 -25 -46 -37 -56 -65 -148 -71 -232 -8 -96 14 -190 64 -282
l37 -69 -335 -334 c-184 -184 -338 -335 -341 -335 -3 0 -20 68 -37 151 l-32
151 29 41 c87 127 141 303 141 459 0 279 -181 567 -431 688 -65 32 -89 23
-146 -53 -266 -358 -175 -874 196 -1118 l76 -50 42 -197 42 -197 -399 -400
c-428 -428 -427 -428 -380 -475 48 -48 42 -53 555 460 313 313 487 480 500
480 19 0 330 -64 368 -76 9 -3 33 -31 53 -62 97 -151 253 -270 439 -333 61
-21 88 -24 215 -24 124 0 156 3 220 23 87 28 173 70 252 124 92 62 95 85 30
193 -82 135 -249 276 -388 328 -116 43 -155 51 -274 50 -170 0 -313 -41 -444
-128 l-57 -38 -152 33 c-84 17 -153 33 -154 34 -1 1 112 116 252 256 l253 253
70 -36 c94 -50 187 -71 282 -63 84 6 176 34 232 71 21 14 41 25 46 25 5 0 34
-20 65 -44 105 -82 264 -151 401 -175 138 -25 362 -6 406 34 28 25 25 66 -5
95 -24 22 -28 23 -89 12 -90 -17 -245 -15 -329 4 -368 83 -627 429 -603 804
14 227 88 374 283 561 222 212 495 357 790 418 356 75 729 29 1049 -129 114
-56 247 -142 329 -214 l57 -49 -98 -98 c-83 -83 -97 -103 -97 -130 0 -21 7
-38 22 -51 47 -37 66 -27 208 115 165 165 165 164 62 261 -70 66 -180 151
-252 195 l-39 24 131 132 c157 158 159 163 79 238 -192 180 -479 297 -729 297
l-69 0 0 64 c0 247 -127 556 -304 741 -68 71 -76 68 -232 -86 l-132 -131 -16
29 c-26 51 -131 188 -201 262 -56 58 -73 71 -99 71 -27 0 -98 -68 -669 -637z
m817 282 c144 -215 233 -447 266 -692 11 -81 16 -321 7 -330 -3 -2 -49 -13
-103 -24 -277 -56 -546 -183 -770 -365 -287 -232 -415 -459 -431 -766 l-6
-106 -52 23 c-444 196 -604 750 -334 1152 17 27 311 328 653 671 l621 623 48
-53 c26 -29 72 -89 101 -133z m556 -49 c86 -137 140 -322 140 -475 0 -80 0
-81 -27 -87 -94 -21 -155 -39 -205 -59 l-57 -23 -11 71 c-20 120 -58 253 -107
374 l-46 115 109 109 109 110 23 -28 c13 -15 45 -63 72 -107z m480 -697 c143
-22 342 -110 449 -198 l33 -27 -102 -107 c-56 -59 -107 -107 -113 -107 -6 0
-61 20 -123 45 -209 83 -421 125 -638 125 l-126 0 0 85 0 85 48 23 c112 57
240 85 392 86 63 0 144 -4 180 -10z m-3481 -1403 c202 -149 303 -392 262 -629
-12 -68 -49 -177 -60 -177 -3 0 -25 91 -49 202 -25 119 -50 210 -59 220 -20
23 -71 23 -95 1 -26 -23 -23 -57 22 -268 22 -103 39 -190 37 -192 -3 -2 -34
29 -71 68 -175 189 -218 477 -105 702 35 69 59 107 66 107 3 0 26 -15 52 -34z
m1149 -155 c76 -51 145 -85 224 -111 l66 -21 22 -67 c28 -82 50 -127 107 -216
41 -64 43 -69 26 -82 -70 -53 -234 -64 -338 -24 -158 61 -262 253 -226 418 10
49 48 142 58 142 2 0 30 -17 61 -39z m376 -1151 c117 -30 209 -83 296 -170 41
-42 83 -90 92 -107 l18 -31 -48 -31 c-203 -130 -483 -125 -690 13 -62 41 -149
123 -140 131 2 1 95 -17 207 -41 225 -48 246 -47 265 9 8 22 6 32 -11 55 -18
24 -37 31 -164 59 -79 17 -173 38 -209 45 l-65 15 48 22 c112 52 272 64 401
31z"/>
<path d="M4217 2451 c-71 -72 -87 -94 -87 -119 0 -40 43 -76 80 -67 37 9 200
176 200 206 0 42 -27 69 -69 69 -34 0 -45 -8 -124 -89z"/>
<path d="M3733 1967 c-71 -71 -93 -99 -93 -120 0 -37 33 -67 72 -67 27 0 46
14 120 88 74 74 88 93 88 120 0 39 -30 72 -67 72 -21 0 -49 -22 -120 -93z"/>
</g>
</svg>
