<?xml version="1.0" standalone="no"?>
<!DOCTYPE svg PUBLIC "-//W3C//DTD SVG 20010904//EN"
 "http://www.w3.org/TR/2001/REC-SVG-20010904/DTD/svg10.dtd">
<svg version="1.0" xmlns="http://www.w3.org/2000/svg"
 width="68.000000pt" height="68.000000pt" viewBox="0 0 68.000000 68.000000"
 preserveAspectRatio="xMidYMid meet">

<g transform="translate(0.000000,68.000000) scale(0.100000,-0.100000)"
fill="#000000" stroke="none">
<path d="M594 556 c-3 -8 -24 -17 -47 -20 -60 -9 -130 -53 -225 -140 -45 -42
-86 -76 -90 -76 -5 0 -21 14 -36 31 -24 27 -33 30 -62 26 -41 -7 -44 7 -12 62
21 37 21 39 4 66 -10 15 -20 24 -24 21 -3 -4 0 -12 6 -18 18 -18 15 -46 -8
-79 -12 -16 -20 -35 -18 -43 2 -7 -8 -22 -21 -33 -54 -44 -33 -196 32 -229 42
-22 108 -13 152 20 19 15 66 70 104 124 114 159 211 241 272 228 34 -7 38 10
13 49 -18 28 -32 32 -40 11z m34 -31 c-3 -3 -9 2 -12 12 -6 14 -5 15 5 6 7 -7
10 -15 7 -18z m-18 -5 c0 -5 -9 -10 -20 -10 -35 0 -82 -29 -142 -88 -57 -55
-58 -55 -78 -37 l-21 19 28 23 c78 66 150 102 206 103 15 0 27 -4 27 -10z
m-245 -150 c27 -30 12 -34 -15 -5 -13 14 -19 25 -13 25 5 0 18 -9 28 -20z
m-20 -20 c17 -18 16 -21 -21 -72 -76 -107 -126 -148 -179 -148 -39 0 -65 18
-81 55 -23 55 -19 62 36 69 27 4 50 10 50 15 0 4 -22 6 -50 3 -46 -4 -50 -3
-50 17 0 18 6 21 48 21 26 0 57 7 69 15 18 13 22 13 33 0 19 -23 46 -18 82 15
39 35 40 35 63 10z m-255 -5 c-10 -12 -9 -15 6 -15 11 0 30 3 44 7 l25 7 -25
7 c-22 6 -21 7 10 8 31 1 33 0 18 -15 -19 -19 -108 -32 -108 -16 0 6 8 16 18
21 24 14 26 13 12 -4z"/>
<path d="M130 553 c0 -6 6 -16 14 -23 8 -6 17 -28 19 -48 l4 -37 1 41 c2 30
-3 46 -18 59 -11 10 -20 13 -20 8z"/>
<path d="M50 531 c0 -20 39 -74 40 -54 0 6 -4 15 -10 18 -5 3 -10 17 -10 31 0
13 -4 24 -10 24 -5 0 -10 -9 -10 -19z"/>
</g>
</svg>
