<?xml version="1.0" standalone="no"?>
<!DOCTYPE svg PUBLIC "-//W3C//DTD SVG 20010904//EN"
 "http://www.w3.org/TR/2001/REC-SVG-20010904/DTD/svg10.dtd">
<svg version="1.0" xmlns="http://www.w3.org/2000/svg"
 width="500.000000pt" height="500.000000pt" viewBox="0 0 500.000000 500.000000"
 preserveAspectRatio="xMidYMid meet">

<g transform="translate(0.000000,500.000000) scale(0.100000,-0.100000)"
fill="#000000" stroke="none">
<path d="M2265 4326 c-360 -70 -611 -202 -862 -455 -95 -96 -213 -260 -270
-376 -71 -145 -127 -324 -152 -492 -14 -90 -14 -295 -1 -388 38 -263 152 -549
284 -716 12 -15 34 -44 51 -65 47 -61 188 -198 252 -246 297 -220 586 -318
943 -318 222 0 399 35 600 117 274 113 528 326 696 585 98 149 199 415 226
593 15 103 15 388 -1 487 -25 158 -106 380 -189 520 -219 371 -557 623 -976
730 -112 28 -136 31 -326 34 -144 2 -226 -1 -275 -10z m398 -81 c158 -13 336
-65 487 -141 79 -40 119 -64 231 -138 72 -47 259 -245 327 -344 266 -389 324
-897 155 -1336 -46 -119 -74 -172 -152 -290 -101 -153 -267 -315 -429 -419
-250 -160 -597 -245 -889 -217 -364 34 -651 168 -904 420 -216 215 -351 468
-406 760 -24 132 -24 411 1 535 58 295 191 542 406 755 256 255 555 391 920
420 93 7 115 7 253 -5z"/>
<path d="M2465 3993 c-21 -38 -48 -86 -60 -108 -12 -22 -39 -69 -60 -105 -21
-36 -49 -85 -63 -110 -14 -25 -33 -57 -43 -72 -11 -14 -19 -29 -19 -32 0 -3
-14 -28 -31 -56 l-31 -50 -374 0 c-248 0 -374 -3 -374 -10 0 -6 11 -27 23 -48
13 -20 43 -71 67 -112 24 -41 56 -96 72 -121 15 -25 28 -49 28 -52 0 -6 69
-125 152 -262 22 -36 27 -54 20 -65 -5 -8 -71 -123 -147 -255 -76 -132 -155
-269 -177 -304 -21 -34 -38 -67 -38 -72 0 -5 166 -10 376 -11 l375 -3 81 -140
c44 -77 121 -210 170 -295 49 -85 92 -158 96 -162 4 -4 42 55 85 130 43 75 95
166 116 202 118 202 141 244 141 250 0 18 49 20 400 20 l369 0 -46 83 c-25 45
-54 93 -63 107 -17 25 -32 50 -118 205 -24 44 -66 117 -93 163 -52 88 -58 112
-34 132 8 7 15 17 15 22 0 5 23 48 51 96 29 48 62 105 74 127 13 22 66 114
119 205 l95 165 -380 5 -380 5 -22 40 c-13 22 -66 114 -119 205 -52 91 -106
185 -120 210 -70 123 -80 140 -87 140 -4 0 -24 -30 -46 -67z m72 -130 c11 -21
35 -65 55 -98 98 -167 169 -297 165 -301 -2 -2 -115 -3 -250 -2 l-247 3 54 95
c29 52 70 124 91 160 21 36 45 79 53 95 16 33 51 85 57 85 1 0 12 -17 22 -37z
m-452 -530 c-15 -27 -41 -73 -57 -103 -17 -30 -35 -60 -40 -67 -5 -7 -18 -27
-27 -45 -10 -18 -35 -62 -56 -98 -21 -36 -44 -78 -52 -93 -8 -15 -20 -26 -26
-24 -7 2 -26 28 -43 58 -17 30 -48 83 -69 119 -21 36 -48 83 -60 105 -12 22
-41 72 -64 112 -22 40 -41 75 -41 78 0 3 126 5 281 5 l281 0 -27 -47z m787
-50 c30 -54 87 -152 125 -218 38 -66 82 -142 96 -168 15 -26 34 -58 42 -70 14
-21 10 -30 -57 -142 -65 -111 -160 -277 -230 -402 l-30 -53 -306 0 -307 0
-102 178 c-55 97 -129 226 -164 286 l-63 109 25 46 c14 25 59 102 99 171 40
69 93 161 118 205 24 44 56 97 70 118 l25 37 302 0 301 0 56 -97z m598 88 c0
-9 -256 -457 -270 -474 -4 -5 -22 18 -40 50 -18 32 -69 121 -114 198 -46 77
-95 161 -110 188 l-27 47 281 0 c167 0 280 -4 280 -9z m-179 -813 c51 -90 112
-195 136 -235 23 -39 43 -76 43 -82 0 -8 -88 -11 -281 -11 l-281 0 16 25 c9
13 28 46 42 72 15 26 30 53 34 58 4 6 17 26 27 45 56 99 166 290 169 290 1 0
44 -73 95 -162z m-1366 -5 c105 -182 129 -223 162 -280 l25 -43 -281 0 c-155
0 -281 2 -281 5 0 5 206 367 252 443 11 17 23 32 26 32 4 0 48 -70 97 -157z
m835 -415 c0 -7 -9 -24 -20 -38 -11 -14 -20 -28 -20 -32 0 -4 -13 -29 -28 -55
-102 -171 -149 -251 -159 -275 -7 -16 -16 -28 -20 -28 -4 0 -21 24 -37 53 -16
28 -71 124 -123 213 -51 88 -93 164 -93 167 0 4 113 7 250 7 193 0 250 -3 250
-12z"/>
<path d="M2470 3060 l0 -80 -90 0 -90 0 0 -35 0 -35 90 0 90 0 0 -220 0 -220
40 0 40 0 0 220 0 220 90 0 90 0 0 35 0 35 -90 0 -90 0 0 80 0 80 -40 0 -40 0
0 -80z"/>
<path d="M915 2201 c-3 -5 2 -26 12 -45 9 -20 15 -37 12 -39 -2 -2 -44 -23
-94 -47 -49 -24 -91 -45 -93 -46 -3 -2 15 -42 23 -52 1 -1 44 18 96 44 89 45
93 47 105 28 39 -57 42 -60 58 -44 13 13 10 26 -32 113 -32 66 -52 97 -64 97
-9 0 -19 -4 -23 -9z"/>
<path d="M3986 2088 c-14 -20 -13 -24 22 -67 145 -180 145 -181 159 -170 17
15 16 34 -4 65 -16 25 -15 28 13 80 26 49 32 54 59 52 23 -2 32 2 42 22 12 25
12 25 -45 31 -31 4 -96 7 -144 8 -78 1 -88 -1 -102 -21z m152 -36 c10 -7 9
-15 -4 -40 -8 -18 -19 -32 -22 -31 -4 0 -22 18 -41 40 l-33 39 43 0 c24 0 50
-4 57 -8z"/>
<path d="M3884 1910 c-16 -23 -44 -60 -61 -83 -36 -47 -39 -59 -19 -76 11 -9
18 -6 36 19 12 16 27 30 33 30 7 0 35 -17 63 -38 27 -20 64 -47 82 -59 l31
-23 15 22 c19 26 13 34 -57 82 -29 20 -63 44 -77 55 l-25 20 23 30 c12 17 22
34 22 40 0 7 -22 21 -34 21 -1 0 -15 -18 -32 -40z"/>
<path d="M1052 1821 c-41 -32 -85 -70 -99 -84 l-26 -25 49 -62 c27 -34 54 -69
60 -76 12 -15 44 -9 44 7 0 6 -19 34 -41 64 l-41 55 23 19 c28 22 37 17 70
-36 15 -24 27 -33 42 -31 32 5 30 20 -8 63 -41 47 -43 60 -13 76 23 13 20 16
80 -62 25 -32 27 -33 43 -17 16 15 14 21 -40 90 -31 40 -60 74 -63 75 -4 1
-40 -25 -80 -56z"/>
<path d="M862 1858 c-26 -26 -8 -58 33 -58 19 0 29 38 15 55 -15 18 -32 19
-48 3z"/>
<path d="M3726 1712 c-15 -18 -12 -22 64 -92 115 -105 118 -107 141 -83 19 18
18 20 -76 106 -53 48 -99 87 -104 87 -4 0 -15 -8 -25 -18z"/>
<path d="M1341 1568 c-12 -18 -37 -55 -56 -82 -40 -55 -43 -87 -15 -133 24
-39 67 -63 116 -63 31 0 44 7 77 43 22 23 53 60 68 81 27 37 28 40 13 58 -10
10 -20 18 -23 18 -4 0 -23 -22 -44 -48 -81 -107 -107 -122 -147 -82 -31 31
-24 62 32 135 41 53 50 70 41 83 -17 28 -39 25 -62 -10z"/>
<path d="M3624 1593 c-12 -2 -51 -29 -88 -59 l-66 -54 77 -93 c43 -50 82 -95
87 -99 14 -9 33 3 99 64 56 53 57 55 57 110 0 98 -66 151 -166 131z m81 -70
c45 -45 40 -99 -12 -142 l-36 -29 -53 61 c-29 34 -53 64 -53 67 0 3 16 17 36
33 41 31 93 36 118 10z"/>
<path d="M1120 1525 c-6 -8 -9 -23 -5 -35 10 -31 59 -24 63 9 6 37 -34 55 -58
26z"/>
<path d="M3373 1422 c-22 -15 -55 -35 -72 -44 -17 -10 -34 -23 -37 -31 -4 -12
92 -197 115 -220 4 -4 41 11 82 34 99 55 101 57 89 80 -10 17 -14 16 -74 -17
l-63 -34 -18 26 c-19 30 -19 29 48 65 20 10 37 26 37 35 0 27 -30 27 -68 0
-45 -31 -58 -32 -72 -7 -14 27 -15 26 33 55 69 42 70 42 62 65 -8 26 -10 26
-62 -7z"/>
<path d="M1688 1243 c-4 -153 -3 -158 27 -171 22 -10 33 -3 131 85 97 88 105
98 88 110 -10 7 -23 13 -28 13 -6 0 -42 -30 -79 -65 -37 -36 -72 -65 -76 -65
-5 0 -6 43 -3 97 4 85 3 98 -13 110 -40 28 -44 19 -47 -114z"/>
<path d="M3165 1308 c-11 -6 -21 -12 -23 -13 -1 -1 9 -33 22 -71 14 -37 23
-70 21 -72 -2 -2 -41 19 -88 47 -58 35 -90 48 -105 44 -12 -3 -22 -10 -22 -17
0 -9 79 -234 86 -244 2 -3 41 14 51 22 2 1 -9 33 -22 71 -14 37 -23 70 -21 72
2 2 41 -19 88 -46 58 -35 91 -48 106 -44 28 7 28 20 -4 96 -15 34 -33 83 -40
109 -17 55 -22 60 -49 46z"/>
<path d="M2111 1274 c-21 -15 -21 -18 -7 -26 21 -12 94 21 74 33 -20 13 -41
11 -67 -7z"/>
<path d="M2009 1214 c-43 -18 -79 -76 -79 -126 0 -54 47 -112 103 -127 111
-31 195 33 185 141 -10 99 -110 153 -209 112z m110 -49 c33 -16 41 -33 41 -80
0 -46 -50 -89 -94 -81 -63 12 -95 84 -60 134 28 41 69 50 113 27z"/>
<path d="M2815 1204 c-109 -19 -105 -17 -98 -61 10 -66 40 -214 45 -219 4 -4
92 12 176 31 14 3 22 13 22 25 0 23 -16 25 -91 9 -42 -9 -53 -9 -60 2 -21 33
-10 47 49 61 47 12 56 18 54 34 -2 10 -5 20 -5 21 -1 1 -26 -3 -56 -9 -42 -7
-56 -7 -62 4 -19 29 -9 46 29 52 90 16 92 17 92 42 0 13 -3 24 -7 23 -5 0 -44
-7 -88 -15z"/>
<path d="M2419 1153 c-3 -70 4 -239 11 -243 4 -3 52 -3 105 0 81 4 99 8 111
24 20 29 18 83 -5 97 -17 11 -17 14 -3 39 20 34 10 73 -23 88 -14 7 -64 12
-110 12 -74 0 -85 -2 -86 -17z m165 -46 c15 -25 -16 -47 -65 -47 -33 0 -37 3
-41 30 -6 39 -2 41 51 38 29 -2 48 -9 55 -21z m14 -118 c3 -30 -15 -39 -80
-39 -37 0 -38 1 -38 35 l0 36 58 -3 c53 -3 57 -5 60 -29z"/>
<path d="M1976 825 c-10 -10 -16 -33 -16 -61 0 -39 3 -46 26 -55 21 -7 33 -6
53 7 16 11 21 19 13 22 -7 2 -19 -2 -27 -8 -22 -18 -45 -4 -45 25 0 55 38 85
59 48 5 -10 13 -14 17 -10 13 13 -11 42 -38 45 -14 2 -33 -4 -42 -13z"/>
<path d="M2985 793 c9 -65 15 -83 26 -83 5 0 9 10 9 23 0 17 8 25 32 32 65 20
43 75 -29 75 l-44 0 6 -47z m73 4 c3 -14 -1 -18 -20 -15 -12 2 -24 11 -26 21
-3 14 1 18 20 15 12 -2 24 -11 26 -21z"/>
<path d="M2885 816 c-25 -18 -13 -44 30 -62 19 -8 35 -18 35 -23 0 -14 -32
-23 -44 -11 -5 5 -16 10 -24 10 -12 0 -12 -3 -2 -16 9 -10 26 -14 49 -12 33 3
36 6 36 33 0 24 -5 31 -32 39 -18 5 -33 15 -33 22 0 17 22 18 38 2 15 -15 26
-4 19 17 -8 19 -47 20 -72 1z"/>
<path d="M2450 800 c0 -5 5 -10 10 -10 6 0 10 5 10 10 0 6 -4 10 -10 10 -5 0
-10 -4 -10 -10z"/>
<path d="M2084 779 c-5 -9 1 -10 20 -5 19 5 26 3 26 -9 0 -8 -8 -15 -19 -15
-24 0 -42 -22 -32 -39 5 -7 22 -15 39 -17 29 -3 32 -1 38 31 3 19 4 42 0 50
-6 18 -61 20 -72 4z m46 -54 c0 -8 -7 -15 -15 -15 -8 0 -15 7 -15 15 0 8 7 15
15 15 8 0 15 -7 15 -15z"/>
<path d="M2180 735 c0 -53 15 -60 24 -10 10 49 38 48 34 -1 -2 -22 2 -39 9
-41 7 -3 13 10 15 33 4 53 28 57 28 5 0 -30 4 -41 16 -41 12 0 14 10 12 48
l-3 47 -67 3 -68 3 0 -46z"/>
<path d="M2346 772 c-10 -9 -7 -132 3 -132 5 0 11 9 14 19 2 11 15 21 27 23
33 4 46 31 34 65 -7 22 -16 28 -41 30 -17 0 -34 -1 -37 -5z m58 -27 c8 -21 -3
-45 -20 -45 -9 0 -14 11 -14 30 0 32 23 42 34 15z"/>
<path d="M2457 773 c-11 -10 -8 -93 3 -93 6 0 10 23 10 50 0 51 -1 55 -13 43z"/>
<path d="M2500 729 c0 -36 4 -49 14 -49 11 0 14 11 13 38 -2 27 2 37 13 37 10
0 16 -12 18 -37 5 -56 24 -46 20 10 -3 47 -3 47 -40 48 l-38 1 0 -48z"/>
<path d="M2609 764 c-13 -16 -12 -17 12 -11 38 10 44 -5 8 -20 -45 -19 -36
-47 17 -51 l40 -3 -5 48 c-5 42 -9 48 -32 51 -15 2 -31 -4 -40 -14z m51 -54
c0 -5 -7 -10 -15 -10 -8 0 -15 5 -15 10 0 6 7 10 15 10 8 0 15 -4 15 -10z"/>
<path d="M2706 764 c-8 -21 11 -44 35 -44 11 0 19 -5 19 -11 0 -7 -12 -8 -32
-4 -31 7 -32 6 -16 -10 22 -23 68 -13 68 16 0 11 -8 22 -17 25 -10 3 -24 8
-32 10 -11 4 -11 8 -3 16 8 8 15 8 27 -2 17 -14 31 -8 20 9 -10 17 -62 13 -69
-5z"/>
<path d="M2800 740 c0 -5 9 -10 19 -10 11 0 23 5 26 10 4 6 -5 10 -19 10 -14
0 -26 -4 -26 -10z"/>
</g>
</svg>
