<?xml version="1.0" standalone="no"?>
<!DOCTYPE svg PUBLIC "-//W3C//DTD SVG 20010904//EN"
 "http://www.w3.org/TR/2001/REC-SVG-20010904/DTD/svg10.dtd">
<svg version="1.0" xmlns="http://www.w3.org/2000/svg"
 width="512.000000pt" height="512.000000pt" viewBox="0 0 512.000000 512.000000"
 preserveAspectRatio="xMidYMid meet">

<g transform="translate(0.000000,512.000000) scale(0.100000,-0.100000)"
fill="#000000" stroke="none">
<path d="M415 4786 c-41 -18 -83 -69 -90 -109 -3 -18 -4 -982 -3 -2144 l3
-2112 21 -27 c11 -15 33 -37 48 -48 27 -21 28 -21 1526 -21 1498 0 1499 0
1526 21 15 11 37 33 48 48 20 26 21 40 21 326 0 286 -1 300 -21 326 -39 53
-71 69 -134 69 -63 0 -95 -16 -134 -69 -19 -25 -21 -44 -24 -217 l-3 -189
-1280 0 -1279 0 0 1920 0 1920 1280 0 1280 0 0 -1088 0 -1087 -211 -210 c-290
-290 -360 -399 -411 -645 -44 -214 0 -318 139 -328 134 -9 348 51 494 140 75
45 163 130 792 757 389 388 721 726 737 751 121 188 45 453 -157 547 -74 34
-160 46 -236 33 -117 -22 -138 -38 -494 -393 l-333 -331 -2 1036 c-3 1029 -3
1037 -24 1064 -11 15 -33 37 -48 48 -27 21 -30 21 -1514 23 -1221 2 -1492 0
-1517 -11z m4045 -1766 c31 -31 25 -65 -20 -113 l-39 -42 -48 48 -48 48 42 39
c48 45 82 51 113 20z m-330 -335 l45 -46 -545 -542 c-557 -555 -575 -572 -692
-616 -26 -10 -27 -9 -17 17 44 116 61 136 613 690 297 298 543 542 546 542 3
0 26 -20 50 -45z"/>
<path d="M1532 3986 c-369 -184 -395 -201 -408 -273 -10 -51 3 -212 27 -326
63 -314 226 -565 543 -842 145 -127 171 -144 224 -145 55 0 91 23 234 148 370
328 536 631 564 1033 8 117 1 159 -33 200 -39 46 -709 379 -763 379 -30 0
-115 -38 -388 -174z m627 -285 l238 -120 -9 -63 c-22 -164 -86 -320 -189 -459
-66 -88 -254 -279 -275 -279 -17 0 -150 118 -206 183 -158 183 -239 352 -266
555 l-9 63 236 119 c130 65 237 119 239 119 1 1 109 -53 241 -118z"/>
<path d="M1045 2391 c-92 -24 -173 -90 -215 -176 -34 -69 -35 -198 -2 -265 34
-71 75 -114 144 -151 58 -31 70 -34 148 -33 72 0 93 4 136 26 75 40 107 70
145 140 31 58 34 70 34 148 0 78 -3 90 -34 148 -57 104 -144 160 -260 167 -36
2 -79 1 -96 -4z"/>
<path d="M1695 2226 c-67 -29 -105 -106 -91 -181 9 -47 59 -102 104 -115 25
-8 184 -10 474 -8 423 3 437 4 464 24 53 39 69 71 69 134 0 63 -16 95 -69 134
-27 20 -40 21 -474 23 -356 2 -453 0 -477 -11z"/>
<path d="M1045 1591 c-92 -24 -173 -90 -215 -176 -34 -69 -35 -198 -2 -265 34
-71 75 -114 144 -151 58 -31 70 -34 148 -33 72 0 93 4 136 26 75 40 107 70
145 140 31 58 34 70 34 148 0 78 -3 90 -34 148 -57 104 -144 160 -260 167 -36
2 -79 1 -96 -4z"/>
<path d="M1695 1426 c-67 -29 -105 -106 -91 -181 9 -47 59 -102 104 -116 24
-6 136 -9 314 -7 261 3 278 4 304 24 53 39 69 71 69 134 0 63 -16 95 -69 134
-26 20 -42 21 -314 23 -223 2 -294 0 -317 -11z"/>
</g>
</svg>
