<?xml version="1.0" standalone="no"?>
<!DOCTYPE svg PUBLIC "-//W3C//DTD SVG 20010904//EN"
 "http://www.w3.org/TR/2001/REC-SVG-20010904/DTD/svg10.dtd">
<svg version="1.0" xmlns="http://www.w3.org/2000/svg"
 width="512.000000pt" height="512.000000pt" viewBox="0 0 512.000000 512.000000"
 preserveAspectRatio="xMidYMid meet">

<g transform="translate(0.000000,512.000000) scale(0.100000,-0.100000)"
fill="#000000" stroke="none">
<path d="M2301 4783 c-24 -9 -63 -34 -85 -57 -38 -38 -61 -93 -349 -834 -170
-437 -315 -824 -323 -860 -19 -91 -18 -348 2 -587 9 -104 14 -211 11 -237 -7
-56 -35 -113 -74 -150 -27 -26 -227 -148 -242 -148 -4 0 -16 9 -25 19 -53 59
-190 80 -271 42 -25 -12 -110 -89 -222 -203 -153 -154 -183 -189 -183 -213 0
-26 80 -110 597 -627 566 -566 600 -598 633 -598 33 0 50 14 221 188 209 210
226 237 216 336 -6 60 -24 100 -66 149 l-29 33 96 76 c124 98 267 241 312 312
19 30 37 55 40 56 3 0 16 -21 30 -47 32 -60 195 -226 323 -328 l98 -78 -29
-31 c-43 -45 -63 -92 -69 -157 -9 -96 17 -135 225 -341 161 -161 181 -178 213
-178 32 0 74 40 631 598 562 561 598 599 598 632 0 32 -15 50 -182 216 -107
106 -200 188 -223 200 -82 39 -199 20 -267 -43 l-26 -25 -99 58 c-54 32 -113
69 -131 83 -39 29 -78 92 -87 142 -4 20 3 179 15 354 23 344 21 416 -21 550
-22 72 -592 1543 -614 1584 -20 38 -75 88 -117 105 -21 9 -65 16 -99 16 -51 0
-72 -6 -117 -31 -49 -27 -56 -29 -71 -15 -57 51 -158 68 -240 39z m128 -158
c31 -16 41 -33 41 -72 0 -20 -176 -803 -196 -876 -3 -9 -20 -24 -37 -33 -45
-23 -86 -63 -107 -105 -28 -53 -230 -692 -230 -725 0 -80 104 -112 141 -43 6
12 58 168 115 347 57 178 110 335 119 349 21 32 77 55 113 47 36 -9 80 -50 87
-83 3 -15 -16 -157 -42 -316 -61 -375 -62 -462 -10 -710 48 -232 61 -352 54
-515 -12 -258 -54 -368 -193 -500 -80 -75 -167 -148 -254 -213 l-36 -26 -318
318 -318 319 98 58 c55 32 121 80 147 106 56 56 103 149 112 222 4 28 -3 195
-15 371 -24 350 -22 399 25 533 12 37 149 393 304 792 289 743 301 770 352
770 11 0 33 -7 48 -15z m352 -8 c9 -7 20 -21 26 -32 23 -44 601 -1543 611
-1585 23 -96 23 -165 2 -465 -12 -170 -20 -330 -17 -355 16 -133 95 -240 244
-328 48 -29 95 -57 103 -62 12 -8 -50 -74 -300 -325 -173 -173 -319 -315 -323
-315 -23 0 -227 172 -325 273 -110 115 -149 226 -159 457 -7 166 6 290 54 520
53 250 52 326 -11 713 -42 260 -47 302 -35 329 31 76 149 91 193 23 7 -11 62
-171 121 -355 67 -209 115 -343 128 -357 44 -48 127 -13 127 53 0 17 -24 108
-54 200 -30 93 -79 249 -110 346 -51 159 -61 181 -101 226 -24 27 -58 55 -74
62 -17 6 -32 22 -35 35 -45 181 -196 854 -196 876 0 60 84 103 131 66z m-158
-693 c33 -140 57 -257 55 -258 -1 -2 -21 -13 -43 -25 -22 -12 -48 -27 -57 -33
-13 -10 -20 -9 -35 4 -10 9 -37 25 -60 37 -24 12 -43 25 -43 29 0 20 115 502
119 502 4 0 32 -115 64 -256z m-47 -1145 c8 -79 -4 -225 -17 -212 -14 14 -23
152 -14 228 8 81 21 74 31 -16z m-1007 -1433 c443 -443 481 -484 481 -515 0
-29 -16 -50 -140 -175 l-139 -141 -516 515 c-283 283 -515 520 -515 525 0 16
253 263 279 273 13 5 34 7 46 4 12 -2 233 -215 504 -486z m2675 344 l141 -140
-517 -517 -518 -518 -135 135 c-74 74 -138 143 -141 153 -3 10 1 28 9 40 19
29 327 348 680 705 245 247 283 282 310 282 26 0 52 -21 171 -140z"/>
</g>
</svg>
