<?xml version="1.0" standalone="no"?>
<!DOCTYPE svg PUBLIC "-//W3C//DTD SVG 20010904//EN"
 "http://www.w3.org/TR/2001/REC-SVG-20010904/DTD/svg10.dtd">
<svg version="1.0" xmlns="http://www.w3.org/2000/svg"
 width="512.000000pt" height="512.000000pt" viewBox="0 0 512.000000 512.000000"
 preserveAspectRatio="xMidYMid meet">

<g transform="translate(0.000000,512.000000) scale(0.100000,-0.100000)"
fill="#000000" stroke="none">
<path d="M4025 4780 c-139 -15 -283 -67 -392 -141 -71 -48 -180 -156 -225
-222 -55 -81 -104 -187 -129 -282 -28 -104 -30 -299 -5 -428 72 -372 332 -817
696 -1189 143 -147 140 -147 288 7 362 376 608 796 689 1175 26 124 23 337 -6
444 -45 169 -148 331 -275 437 -85 71 -217 142 -260 141 -50 -1 -80 -55 -60
-107 4 -9 30 -28 58 -42 198 -100 338 -269 393 -473 29 -105 23 -287 -11 -425
-78 -307 -265 -628 -564 -968 -58 -65 -108 -117 -112 -115 -15 5 -159 167
-242 270 -325 408 -499 844 -458 1149 46 338 302 587 638 619 74 7 100 13 115
29 41 41 16 114 -43 124 -14 3 -56 1 -95 -3z"/>
<path d="M3986 4434 c-225 -54 -396 -271 -396 -501 0 -135 53 -270 141 -360
68 -70 121 -71 148 -4 15 35 6 55 -47 115 -19 21 -46 64 -61 95 -22 48 -26 69
-26 151 1 83 4 102 28 152 79 162 268 251 433 203 119 -34 211 -118 254 -232
31 -82 25 -207 -13 -284 -56 -115 -167 -193 -298 -210 -86 -11 -109 -27 -109
-79 0 -58 27 -76 108 -72 264 11 482 245 482 516 0 150 -47 264 -149 367 -133
134 -316 186 -495 143z"/>
<path d="M807 3059 c-153 -37 -298 -121 -409 -235 -179 -185 -222 -334 -96
-334 40 0 51 11 98 95 19 33 69 96 114 140 138 137 302 205 496 205 429 0 753
-370 700 -802 -43 -356 -238 -725 -601 -1133 -51 -58 -96 -105 -100 -105 -4 0
-42 38 -84 85 -377 413 -595 833 -621 1193 -5 68 -11 92 -27 110 -27 30 -71
29 -102 -3 -30 -29 -32 -72 -10 -220 58 -387 309 -831 692 -1226 107 -110 119
-119 153 -119 34 0 46 8 136 103 375 389 627 819 700 1194 25 128 23 323 -5
428 -85 319 -340 565 -653 629 -107 22 -281 20 -381 -5z"/>
<path d="M905 2738 c-90 -17 -194 -74 -265 -147 -103 -106 -150 -218 -150
-367 0 -227 147 -429 362 -495 140 -43 228 -25 228 46 0 51 -19 66 -104 81
-43 7 -101 24 -129 37 -67 31 -138 102 -174 175 -25 51 -28 68 -28 157 0 88 3
107 27 157 85 183 306 265 486 183 231 -106 293 -394 127 -587 -50 -59 -47
-110 8 -133 44 -19 79 -2 125 58 53 69 79 123 97 199 88 372 -234 708 -610
636z"/>
<path d="M2702 2137 c-31 -33 -29 -80 4 -106 24 -19 40 -21 153 -21 137 0 163
8 182 57 10 28 -10 77 -36 87 -9 3 -76 6 -149 6 -126 0 -134 -1 -154 -23z"/>
<path d="M3282 2137 c-29 -31 -28 -72 3 -102 23 -24 30 -25 149 -25 72 0 136
5 150 11 51 23 55 103 7 128 -11 6 -78 11 -154 11 -127 0 -135 -1 -155 -23z"/>
<path d="M3862 2137 c-29 -31 -28 -72 3 -102 21 -22 33 -25 103 -25 65 0 84 4
106 21 34 27 36 77 3 107 -20 19 -35 22 -108 22 -76 0 -88 -2 -107 -23z"/>
<path d="M2308 2063 c-124 -95 -169 -187 -112 -232 47 -37 84 -26 129 39 15
22 51 57 79 77 62 46 66 50 66 90 0 36 -38 73 -76 73 -12 0 -51 -21 -86 -47z"/>
<path d="M2156 1589 c-36 -28 -34 -66 10 -150 42 -79 121 -159 157 -159 40 0
71 32 71 74 0 28 -8 44 -36 74 -20 20 -51 65 -68 99 -42 86 -81 104 -134 62z"/>
<path d="M2607 1303 c-8 -10 -19 -30 -22 -45 -6 -22 -1 -33 22 -56 28 -28 32
-29 158 -35 144 -5 169 1 181 50 10 37 -14 76 -56 90 -19 7 -87 12 -151 12
-98 1 -118 -2 -132 -16z"/>
<path d="M3113 1078 c-12 -6 -27 -23 -33 -39 -10 -23 -8 -37 9 -84 13 -33 21
-79 21 -114 0 -44 5 -65 21 -85 26 -33 79 -36 110 -5 20 20 21 30 17 114 -6
110 -40 199 -83 215 -31 12 -34 12 -62 -2z"/>
<path d="M2955 540 c-28 -16 -77 -36 -110 -44 -72 -19 -110 -54 -100 -95 8
-36 41 -61 81 -61 73 0 243 76 258 116 14 36 6 73 -20 93 -35 27 -49 26 -109
-9z"/>
<path d="M1163 484 c-27 -6 -63 -49 -63 -75 0 -10 11 -31 24 -46 23 -27 29
-28 109 -28 102 0 127 15 127 75 0 54 -25 72 -107 76 -38 1 -78 0 -90 -2z"/>
<path d="M1643 483 c-27 -5 -63 -48 -63 -74 0 -10 11 -31 24 -46 24 -27 27
-28 144 -31 137 -4 187 9 198 52 11 44 -4 76 -41 92 -33 13 -205 18 -262 7z"/>
<path d="M2223 483 c-27 -5 -63 -48 -63 -74 0 -10 11 -31 24 -46 24 -27 27
-28 144 -31 137 -4 187 9 198 52 11 44 -4 76 -41 92 -33 13 -205 18 -262 7z"/>
</g>
</svg>
