<?xml version="1.0" standalone="no"?>
<!DOCTYPE svg PUBLIC "-//W3C//DTD SVG 20010904//EN"
 "http://www.w3.org/TR/2001/REC-SVG-20010904/DTD/svg10.dtd">
<svg version="1.0" xmlns="http://www.w3.org/2000/svg"
 width="512.000000pt" height="512.000000pt" viewBox="0 0 512.000000 512.000000"
 preserveAspectRatio="xMidYMid meet">

<g transform="translate(0.000000,512.000000) scale(0.100000,-0.100000)"
fill="#000000" stroke="none">
<path d="M1300 5104 c-285 -61 -499 -263 -582 -551 l-23 -78 0 -1915 0 -1915
23 -78 c77 -267 272 -464 537 -543 56 -17 152 -19 1618 -21 l1557 -3 0 2042 0
2043 -1550 -3 c-1017 -2 -1572 0 -1615 7 -189 29 -323 166 -340 344 -16 174
69 327 225 401 l65 31 1608 3 1607 2 0 125 0 125 -1532 -1 c-1272 0 -1544 -3
-1598 -15z m-371 -1048 c48 -100 132 -190 212 -230 118 -57 66 -56 1627 -56
l1432 0 0 -80 0 -80 -1322 -2 c-1480 -3 -1533 -3 -1638 18 -171 34 -292 136
-336 281 -20 66 -45 213 -38 224 12 20 24 5 63 -75z m1807 -897 c178 -25 398
-114 535 -218 381 -290 545 -781 413 -1239 -121 -418 -475 -733 -909 -809
-132 -23 -347 -13 -478 21 -380 99 -685 389 -805 766 -169 534 79 1118 584
1369 113 55 235 92 384 115 55 8 203 5 276 -5z m-1812 -2419 c42 -91 124 -186
194 -227 24 -15 74 -36 111 -47 65 -20 83 -21 1519 -24 l1452 -3 0 -80 0 -80
-1462 4 c-1604 3 -1516 0 -1636 61 -51 26 -137 110 -170 166 -32 55 -81 277
-67 301 12 19 22 7 59 -71z"/>
<path d="M2500 3035 c-8 -2 -49 -9 -90 -15 -316 -52 -593 -260 -736 -554 -24
-49 -44 -96 -44 -103 0 -11 64 -13 352 -11 l352 3 108 330 c59 182 108 336
108 343 0 11 -15 14 -50 7z"/>
<path d="M2611 3033 c1 -5 51 -159 112 -343 l112 -335 353 -3 c247 -1 352 1
352 9 0 22 -71 162 -117 230 -89 134 -242 268 -388 341 -80 41 -202 78 -305
93 -109 17 -120 18 -119 8z"/>
<path d="M2522 2559 c-34 -103 -62 -192 -62 -198 0 -7 41 -11 125 -11 l125 0
-6 28 c-4 15 -33 104 -64 197 l-57 170 -61 -186z"/>
<path d="M1591 2233 c-7 -32 -15 -107 -18 -168 -15 -291 101 -575 319 -781
l72 -67 103 314 c56 173 104 323 105 333 2 15 -60 65 -277 223 -154 112 -283
203 -286 203 -3 0 -12 -26 -18 -57z"/>
<path d="M3273 2088 c-153 -111 -280 -203 -282 -205 -4 -3 196 -627 209 -652
5 -9 25 4 74 49 154 145 262 338 307 555 25 118 10 431 -21 450 -5 3 -133 -86
-287 -197z"/>
<path d="M1896 2231 c5 -5 81 -62 169 -126 l160 -116 37 118 c21 65 38 121 38
126 0 4 -93 7 -207 7 -128 0 -203 -4 -197 -9z"/>
<path d="M2417 2233 c-13 -22 -97 -299 -93 -308 5 -14 246 -188 261 -188 10 0
265 181 265 188 0 2 -23 74 -50 159 l-51 156 -164 0 c-90 0 -166 -3 -168 -7z"/>
<path d="M2872 2228 c3 -7 20 -58 38 -113 18 -55 36 -104 40 -108 5 -6 281
185 325 224 5 5 -80 9 -199 9 -162 0 -207 -3 -204 -12z"/>
<path d="M2788 1737 c-54 -40 -96 -76 -95 -81 3 -10 310 -235 315 -231 4 3
-117 386 -121 384 -1 0 -46 -33 -99 -72z"/>
<path d="M2213 1610 c-33 -105 -57 -190 -54 -188 17 7 321 232 320 237 0 8
-187 141 -197 141 -4 0 -35 -86 -69 -190z"/>
<path d="M2305 1384 c-148 -108 -270 -201 -270 -207 0 -20 188 -106 291 -134
87 -23 118 -27 259 -27 145 0 170 2 260 27 97 27 285 112 291 132 3 10 -526
398 -549 403 -6 1 -133 -86 -282 -194z"/>
<path d="M1150 4774 c-28 -26 -50 -51 -50 -55 0 -5 711 -9 1605 -9 l1605 0 0
55 0 55 -1555 0 -1556 0 -49 -46z"/>
<path d="M1031 4593 c-6 -21 -11 -44 -11 -50 0 -10 336 -13 1645 -13 l1645 0
0 50 0 50 -1635 0 -1634 0 -10 -37z"/>
<path d="M1024 4398 c4 -22 9 -45 12 -50 3 -4 741 -8 1640 -8 l1634 0 0 50 0
50 -1646 0 -1647 0 7 -42z"/>
<path d="M1090 4252 c0 -4 22 -29 48 -55 l48 -47 1562 0 1562 0 0 55 0 55
-1610 0 c-885 0 -1610 -4 -1610 -8z"/>
</g>
</svg>
