<?xml version="1.0" standalone="no"?>
<!DOCTYPE svg PUBLIC "-//W3C//DTD SVG 20010904//EN"
 "http://www.w3.org/TR/2001/REC-SVG-20010904/DTD/svg10.dtd">
<svg version="1.0" xmlns="http://www.w3.org/2000/svg"
 width="99.000000pt" height="99.000000pt" viewBox="0 0 99.000000 99.000000"
 preserveAspectRatio="xMidYMid meet">

<g transform="translate(0.000000,99.000000) scale(0.100000,-0.100000)"
fill="#000000" stroke="none">
<path d="M563 898 c-56 -22 -62 -28 -38 -48 12 -10 9 -19 -20 -61 -57 -83 -58
-148 -4 -194 l30 -25 -47 -62 c-26 -35 -58 -76 -70 -91 l-23 -28 -19 38 -19
37 33 32 c41 38 45 83 14 144 -11 22 -20 46 -20 53 0 14 -71 67 -90 67 -6 0
-10 -26 -10 -60 0 -58 1 -60 24 -54 19 4 26 -1 41 -32 13 -28 15 -42 6 -60
-20 -44 -46 -30 -90 50 -23 40 -41 82 -41 93 0 22 -74 78 -90 68 -6 -3 -10
-31 -10 -61 0 -52 1 -54 23 -49 20 5 28 -4 66 -70 45 -80 47 -105 7 -105 -32
0 -69 46 -61 77 4 18 -3 27 -38 48 -24 14 -47 25 -50 25 -4 0 -7 -27 -7 -61 0
-54 2 -60 18 -55 13 5 23 -1 32 -20 33 -61 101 -90 150 -64 16 8 23 2 50 -46
17 -31 29 -61 27 -68 -3 -6 -39 -53 -81 -105 -63 -77 -74 -96 -65 -112 10 -20
46 -33 76 -27 10 2 42 35 70 73 29 39 56 71 60 72 5 2 25 -27 46 -62 40 -69
54 -76 80 -47 25 27 22 40 -28 120 l-44 73 71 97 c39 53 72 99 74 101 1 1 18
-9 37 -23 67 -51 161 -21 217 69 13 21 28 34 35 31 8 -3 18 1 24 8 15 18 26
122 13 130 -11 7 -120 -30 -137 -46 -7 -6 -4 -14 8 -22 22 -17 21 -22 -4 -57
-30 -42 -75 -64 -105 -50 -44 20 -29 61 71 188 31 40 45 50 61 46 20 -4 23 2
33 62 7 36 9 70 6 75 -6 9 -128 -30 -143 -45 -4 -4 3 -14 15 -22 22 -15 22
-15 -53 -114 -59 -79 -80 -99 -100 -99 -52 0 -52 90 0 139 13 12 30 19 39 16
21 -9 36 23 40 82 3 58 -11 63 -90 31z m61 -46 c-7 -45 -11 -45 -63 -4 l-24
19 44 15 c24 9 45 14 47 13 1 -1 0 -21 -4 -43z m205 21 c-1 -10 -4 -31 -8 -46
l-6 -29 -38 30 -37 30 37 15 c49 21 53 20 52 0z m-265 -65 c-4 -7 -16 -24 -26
-38 -58 -81 -24 -176 56 -156 14 3 52 44 95 101 40 53 77 93 82 89 7 -4 1 -17
-14 -33 -14 -14 -48 -57 -76 -95 -59 -80 -65 -114 -25 -145 47 -37 86 -25 146
42 45 52 61 42 23 -13 -70 -101 -182 -108 -221 -13 -11 24 -23 35 -44 40 -17
3 -42 19 -56 36 -21 25 -25 38 -21 68 5 38 60 129 78 129 6 0 7 -6 3 -12z
m-374 -98 c0 -4 -11 -12 -25 -18 -24 -11 -25 -10 -25 18 0 28 1 29 25 18 14
-6 25 -14 25 -18z m144 5 c21 -16 21 -17 -11 -34 -21 -11 -23 -10 -23 19 0 33
6 36 34 15z m560 -62 c-9 -49 -10 -50 -41 -27 -37 28 -38 38 -6 51 49 19 55
17 47 -24z m-651 -68 c40 -65 45 -70 77 -70 28 0 37 5 49 29 12 26 11 34 -7
78 -24 56 -15 64 13 12 40 -75 13 -144 -57 -144 -20 0 -37 -8 -50 -25 -39 -50
-111 -23 -147 55 -10 21 -10 22 1 5 46 -69 93 -91 130 -58 26 23 23 48 -16
112 -34 57 -65 118 -46 91 6 -8 30 -46 53 -85z m-115 -10 c1 -1 -9 -10 -23
-19 -25 -16 -25 -16 -25 14 0 29 2 30 23 19 12 -6 23 -13 25 -14z m448 -20 c7
-17 -321 -465 -341 -465 -7 0 -17 6 -23 13 -8 10 1 27 36 68 26 31 105 133
177 227 72 94 134 172 138 172 4 0 10 -7 13 -15z m-236 -132 c30 -49 37 -73
21 -73 -9 0 -71 100 -71 114 0 20 24 0 50 -41z m138 -225 c33 -54 38 -69 27
-78 -10 -8 -21 4 -53 59 -28 49 -37 72 -29 80 6 6 12 10 13 8 1 -1 20 -32 42
-69z"/>
</g>
</svg>
