<?xml version="1.0" standalone="no"?>
<!DOCTYPE svg PUBLIC "-//W3C//DTD SVG 20010904//EN"
 "http://www.w3.org/TR/2001/REC-SVG-20010904/DTD/svg10.dtd">
<svg version="1.0" xmlns="http://www.w3.org/2000/svg"
 width="500.000000pt" height="500.000000pt" viewBox="0 0 500.000000 500.000000"
 preserveAspectRatio="xMidYMid meet">

<g transform="translate(0.000000,500.000000) scale(0.100000,-0.100000)"
fill="#000000" stroke="none">
<path d="M2400 4945 c-8 -2 -49 -9 -90 -15 -232 -38 -459 -157 -636 -334 -107
-107 -166 -188 -227 -311 -233 -470 -143 -1028 225 -1396 47 -48 123 -111 167
-140 45 -30 81 -57 81 -61 0 -10 -20 -14 -164 -38 -388 -65 -546 -167 -644
-416 -24 -60 -189 -744 -198 -818 -13 -109 42 -243 138 -331 46 -43 78 -61
160 -93 59 -23 97 -43 88 -46 -8 -3 -116 -7 -240 -8 l-225 -3 -66 -32 c-79
-39 -169 -130 -204 -205 -55 -121 -55 -287 1 -404 33 -70 109 -153 171 -187
108 -58 86 -57 1066 -57 600 0 905 3 918 10 13 7 19 21 19 45 0 65 2 65 -435
65 l-390 0 97 44 c144 65 234 116 433 246 320 210 588 324 840 359 42 6 234
11 429 11 390 0 431 -5 512 -61 95 -65 140 -166 132 -299 -7 -125 -72 -225
-177 -274 -45 -20 -60 -21 -589 -26 -524 -5 -544 -6 -558 -24 -19 -27 -18 -60
4 -79 17 -15 69 -17 538 -17 566 0 584 2 687 57 62 34 138 117 171 187 14 30
31 89 37 131 30 202 -65 392 -241 478 l-65 32 -225 3 c-124 1 -232 5 -240 8
-9 3 29 23 88 46 82 32 114 50 160 93 96 89 151 221 138 333 -4 29 -47 220
-96 424 -74 306 -97 386 -131 456 -92 190 -252 287 -564 342 -66 11 -138 24
-160 29 l-40 7 34 20 c128 73 284 215 373 339 455 637 201 1526 -523 1825
-133 56 -257 81 -419 85 -80 2 -152 2 -160 0z m306 -130 c233 -38 441 -149
610 -327 464 -489 373 -1278 -191 -1655 -70 -48 -119 -73 -137 -73 -16 1 -68
69 -107 140 l-29 52 64 63 63 63 41 -9 c79 -18 147 20 175 98 9 27 36 86 60
133 81 159 84 241 12 313 l-41 41 3 81 c3 100 -19 211 -60 293 -37 75 -128
176 -216 239 -57 41 -64 50 -79 101 -36 124 -96 201 -189 244 -42 19 -66 23
-155 23 -118 0 -166 -16 -235 -76 -39 -35 -95 -137 -95 -175 0 -48 -22 -82
-85 -128 -74 -54 -151 -136 -188 -198 -51 -88 -70 -163 -72 -295 -2 -122 -2
-122 -33 -153 -61 -61 -56 -157 17 -305 27 -55 54 -114 61 -131 24 -64 87
-104 164 -104 36 0 48 -6 84 -43 23 -23 42 -48 42 -54 0 -16 -93 -154 -124
-182 -23 -22 -28 -23 -57 -11 -45 19 -174 113 -233 168 -385 369 -452 956
-159 1399 48 74 179 211 256 269 126 94 300 170 456 198 102 19 266 19 377 1z
m-60 -314 c56 -25 88 -71 114 -161 26 -90 31 -97 141 -182 152 -118 200 -204
207 -370 4 -94 2 -111 -14 -135 l-19 -28 -5 105 c-6 116 -24 166 -83 227 -70
74 -189 83 -307 22 -94 -48 -156 -47 -270 6 -108 50 -182 54 -252 12 -98 -57
-144 -138 -154 -272 -6 -77 -9 -86 -21 -70 -20 28 -17 180 5 252 26 82 59 130
142 204 167 148 156 131 190 271 13 51 57 103 105 124 46 20 172 17 221 -5z
m-270 -628 c75 -36 84 -38 179 -38 93 0 104 3 161 32 81 42 120 48 163 26 64
-33 76 -74 79 -274 5 -223 -8 -334 -47 -414 -160 -326 -628 -305 -763 34 -20
51 -23 76 -26 294 -3 228 -3 239 18 283 26 52 81 94 126 94 18 0 67 -17 110
-37z m-416 -350 l37 -18 7 -106 c3 -59 13 -128 21 -155 8 -26 12 -51 9 -54 -8
-7 -34 30 -34 48 0 8 -20 51 -44 95 -54 99 -74 170 -56 192 16 19 16 19 60 -2z
m1224 11 c29 -11 19 -74 -26 -165 -23 -46 -49 -104 -58 -128 -16 -44 -43 -72
-56 -59 -4 4 1 36 10 72 9 36 16 105 16 155 l0 89 38 20 c42 22 54 25 76 16z
m-836 -644 c110 -42 275 -44 369 -5 l33 14 21 -42 c12 -23 37 -63 55 -90 19
-26 34 -51 34 -56 0 -20 -55 -171 -83 -226 -115 -230 -305 -386 -561 -459
-141 -41 -126 -77 -126 300 l0 327 63 67 c35 37 80 94 101 128 21 34 38 62 39
62 1 0 26 -9 55 -20z m676 -410 c-52 -195 -137 -382 -245 -542 -77 -114 -293
-332 -399 -405 -79 -53 -229 -136 -268 -148 -23 -7 -23 -6 -20 80 l3 87 75 19
c128 33 270 116 393 231 64 60 74 95 35 122 -36 26 -54 19 -125 -45 -80 -72
-128 -106 -208 -147 -47 -23 -154 -62 -172 -62 -2 0 -3 46 -3 103 l0 103 98
22 c351 80 613 306 737 637 15 38 28 72 31 77 2 4 24 -5 48 -20 l43 -27 -23
-85z m-1044 -554 c0 -354 -3 -646 -6 -649 -3 -2 -25 6 -50 20 l-44 25 0 193
c0 179 -1 194 -21 219 -24 31 -52 33 -79 6 -18 -18 -20 -33 -20 -180 0 -88 -3
-160 -7 -160 -3 0 -34 16 -68 35 l-63 35 -6 327 c-3 181 -8 412 -11 515 l-5
187 37 10 c66 19 63 29 63 -178 0 -175 1 -190 21 -215 23 -30 45 -33 77 -10
22 15 22 20 22 223 0 227 -2 220 58 221 15 1 41 7 57 14 17 7 33 11 38 9 4 -2
7 -294 7 -647z m1290 601 l65 -13 -3 -48 c-5 -82 -50 -237 -96 -332 -24 -50
-73 -127 -110 -172 -36 -46 -66 -88 -66 -95 0 -27 31 -57 59 -57 52 0 179 162
241 308 39 92 77 226 86 301 4 34 11 61 18 61 6 0 40 -14 75 -30 l64 -31 -6
-87 c-12 -159 -76 -362 -159 -499 -51 -86 -148 -193 -227 -253 -74 -57 -90
-84 -72 -119 21 -38 57 -37 115 3 69 48 202 185 256 265 91 136 164 326 192
501 7 44 15 80 19 80 15 0 70 -144 98 -255 87 -347 151 -630 151 -668 0 -86
-46 -180 -113 -231 -20 -15 -146 -70 -281 -122 l-245 -94 -130 0 -129 0 -7 28
c-3 15 -23 51 -45 80 l-39 52 45 26 c50 29 48 30 179 -17 77 -27 108 -33 211
-37 l122 -5 18 28 c16 25 16 30 3 54 -14 24 -21 26 -109 33 -93 7 -226 34
-234 47 -3 3 77 54 176 111 99 58 184 113 190 123 14 27 1 66 -26 78 -29 14
-28 14 -396 -201 l-289 -169 -88 6 c-104 6 -146 -3 -227 -52 -37 -22 -66 -33
-78 -30 -10 4 -18 9 -18 13 0 4 36 26 80 50 198 106 400 305 400 394 0 64 -83
70 -115 9 -23 -45 -130 -157 -203 -212 -118 -89 -336 -189 -413 -189 -55 0
-119 34 -119 63 0 18 18 30 107 72 471 219 815 653 953 1203 12 48 15 49 120
29z m-1777 -399 c4 -182 7 -389 7 -460 l0 -128 -30 0 c-39 0 -68 -40 -52 -74
6 -15 97 -72 273 -171 145 -82 280 -159 300 -171 l37 -23 -39 -42 c-22 -24
-44 -60 -51 -81 l-11 -38 -128 0 -127 0 -247 94 c-135 52 -262 106 -281 121
-42 32 -90 104 -104 155 -18 64 -11 117 55 392 125 521 142 571 224 655 38 40
134 103 157 103 7 0 13 -103 17 -332z m1324 -1073 c52 -15 139 -88 127 -106
-6 -11 -364 -12 -365 -1 0 4 -2 17 -5 29 -3 18 6 28 42 49 76 45 125 52 201
29z m-466 -35 c35 -11 75 -27 88 -36 23 -16 23 -18 6 -31 -14 -10 -64 -13
-201 -13 -101 0 -185 4 -188 8 -7 11 39 54 79 75 42 22 140 21 216 -3z m366
-264 c-81 -41 -229 -128 -330 -194 -263 -173 -464 -275 -659 -333 -40 -12 -95
-28 -123 -37 -39 -11 -123 -16 -380 -19 -318 -4 -333 -4 -387 17 -116 43 -188
147 -196 280 -8 133 37 234 132 299 89 61 58 60 1121 60 l970 1 -148 -74z"/>
<path d="M870 660 c-57 -57 29 -132 98 -84 14 10 22 26 22 44 0 54 -79 81
-120 40z"/>
<path d="M1085 655 c-14 -13 -25 -29 -25 -35 0 -6 11 -22 25 -35 l24 -25 391
0 c377 0 391 1 410 20 11 11 20 29 20 40 0 11 -9 29 -20 40 -19 19 -33 20
-410 20 l-391 0 -24 -25z"/>
</g>
</svg>
