<?xml version="1.0" standalone="no"?>
<!DOCTYPE svg PUBLIC "-//W3C//DTD SVG 20010904//EN"
 "http://www.w3.org/TR/2001/REC-SVG-20010904/DTD/svg10.dtd">
<svg version="1.0" xmlns="http://www.w3.org/2000/svg"
 width="512.000000pt" height="512.000000pt" viewBox="0 0 512.000000 512.000000"
 preserveAspectRatio="xMidYMid meet">

<g transform="translate(0.000000,512.000000) scale(0.100000,-0.100000)"
fill="#000000" stroke="none">
<path d="M2535 5108 c-36 -21 -325 -259 -335 -276 -31 -54 -35 -56 -79 -27
-45 30 -355 144 -412 152 -20 3 -46 0 -58 -6 -24 -14 -226 -347 -243 -402 -10
-35 -13 -38 -37 -31 -44 12 -453 7 -478 -6 -12 -7 -26 -27 -32 -44 -19 -60
-71 -353 -74 -413 l-2 -60 -46 -7 c-65 -11 -411 -145 -426 -165 -7 -9 -13 -32
-13 -50 0 -55 58 -390 75 -429 8 -20 15 -38 15 -40 0 -2 -17 -12 -38 -23 -37
-20 -287 -229 -329 -277 -13 -14 -23 -35 -23 -47 0 -28 185 -361 226 -406 l32
-36 -32 -36 c-48 -56 -219 -369 -219 -400 0 -16 6 -35 13 -44 31 -37 308 -268
343 -286 l37 -19 -15 -37 c-15 -36 -75 -381 -75 -433 0 -15 8 -37 18 -48 9
-11 102 -53 207 -93 188 -72 191 -73 288 -73 53 -1 97 -2 97 -2 0 -1 -13 -57
-29 -125 -46 -190 -64 -306 -105 -654 -7 -63 39 -106 99 -91 14 4 116 97 229
209 l205 202 81 -245 c45 -135 89 -261 98 -280 23 -46 61 -67 99 -55 35 13 54
51 127 263 58 169 60 190 22 222 -24 19 -74 17 -95 -6 -10 -10 -31 -57 -46
-102 -15 -46 -31 -80 -35 -75 -14 14 -99 288 -130 415 -67 279 -67 478 1 742
32 127 80 206 125 206 36 0 78 -59 107 -151 50 -156 61 -243 62 -503 1 -237 1
-239 24 -257 29 -24 62 -24 90 -1 16 12 26 40 37 102 9 47 17 86 18 88 2 1 68
-62 147 -142 134 -134 150 -147 239 -189 113 -54 170 -67 293 -67 140 0 261
36 364 106 23 16 95 79 161 141 l119 112 17 -87 c36 -187 124 -480 208 -698
33 -87 43 -104 68 -114 41 -17 77 -5 96 31 24 48 117 310 155 438 l33 113 80
-88 c45 -48 141 -143 215 -211 107 -99 139 -123 163 -123 33 0 78 39 78 67 0
94 -66 516 -108 693 l-28 115 96 1 c94 0 98 1 285 73 105 40 198 82 208 93 9
11 17 33 17 49 0 53 -59 394 -75 432 l-15 37 39 20 c55 27 340 277 351 306 5
13 7 32 3 41 -15 43 -191 348 -219 381 l-32 37 32 36 c41 45 226 378 226 406
0 12 -10 33 -22 47 -45 49 -294 258 -330 277 -21 11 -38 21 -38 23 0 2 7 21
16 42 17 41 73 364 74 425 0 19 -6 43 -12 52 -16 21 -330 143 -413 161 l-60
13 -1 54 c-2 55 -56 357 -75 417 -6 17 -20 37 -32 44 -25 13 -434 18 -477 6
-23 -7 -27 -3 -43 41 -16 46 -193 348 -225 384 -8 9 -28 17 -45 17 -38 0 -368
-114 -423 -146 l-42 -24 -26 35 c-40 53 -344 295 -369 295 -12 0 -31 -6 -42
-12z m-35 -423 c0 -182 1 -196 20 -215 25 -25 71 -26 101 -1 23 19 24 24 29
215 l5 196 86 -69 c99 -80 139 -143 139 -220 0 -26 -34 -344 -77 -709 l-78
-662 -164 2 -165 3 -70 684 c-76 743 -75 733 -23 808 22 31 175 162 190 163 4
0 7 -88 7 -195z m-546 32 c103 -39 156 -85 156 -136 0 -34 123 -1260 135
-1347 l6 -40 -68 -16 c-37 -9 -68 -16 -69 -15 -1 1 -128 270 -284 597 -300
633 -307 652 -280 736 14 43 118 224 129 224 4 0 24 -48 45 -107 72 -200 98
-263 113 -278 35 -36 123 0 123 50 0 12 -14 59 -31 106 -17 46 -46 126 -65
177 -39 107 -48 102 90 49z m1346 35 c0 -5 -27 -82 -60 -172 -33 -90 -60 -176
-60 -192 0 -15 9 -37 20 -48 25 -25 81 -27 102 -2 9 9 44 93 78 187 34 93 64
173 67 178 7 12 102 -147 121 -202 27 -78 14 -123 -117 -414 -67 -148 -121
-275 -121 -282 0 -22 42 -64 71 -70 17 -4 33 0 47 12 13 10 77 139 148 298 69
154 137 291 150 305 23 24 31 25 154 28 72 2 130 1 130 -2 0 -4 -58 -79 -130
-169 -141 -176 -151 -197 -105 -242 28 -29 65 -32 93 -7 11 9 73 84 138 166
l119 149 13 -54 c7 -30 16 -93 19 -141 5 -75 3 -92 -15 -130 -15 -30 -154
-176 -452 -473 l-429 -429 -56 27 -55 27 24 52 c152 340 149 328 99 368 -62
48 -93 17 -184 -189 -40 -89 -78 -165 -84 -167 -6 -3 -43 3 -81 13 -63 17 -69
21 -67 43 2 14 36 315 78 670 41 355 77 670 81 700 8 72 33 94 154 136 105 36
110 38 110 26z m-1927 -402 c18 -18 546 -1111 594 -1226 2 -7 -22 -26 -53 -43
l-58 -31 -120 118 c-67 65 -264 256 -438 426 -217 211 -324 321 -338 350 -13
28 -20 62 -20 101 0 62 30 235 40 235 4 0 64 -72 134 -160 126 -158 148 -180
181 -180 23 0 75 54 75 79 0 11 -58 93 -130 183 -71 90 -130 167 -130 171 0 5
54 7 120 5 112 -3 121 -5 143 -28z m-552 -510 c8 0 287 -269 831 -800 l76 -75
-64 -59 -64 -59 -58 26 c-31 14 -226 98 -432 187 -550 237 -532 227 -582 308
-16 25 -58 216 -58 264 0 4 77 -41 172 -99 94 -58 178 -107 185 -110 22 -9 70
17 82 43 27 60 18 70 -169 184 -74 45 -146 89 -159 97 l-24 16 25 13 c46 24
203 74 216 69 8 -3 18 -5 23 -5z m3652 -38 c53 -20 97 -39 97 -42 0 -3 -76
-52 -169 -108 -93 -56 -172 -110 -175 -118 -18 -48 18 -114 62 -114 11 0 94
45 186 101 92 56 169 99 171 98 9 -10 -35 -222 -53 -251 -45 -72 -74 -88 -574
-309 l-493 -219 -60 60 -60 60 430 430 c237 236 444 436 460 444 35 18 48 15
178 -32z m-3880 -681 c62 -27 289 -126 506 -220 217 -94 396 -173 398 -175 5
-4 -102 -205 -117 -220 -11 -11 -863 52 -926 70 -71 19 -124 71 -183 179 -28
49 -48 91 -46 93 1 2 86 -13 187 -32 220 -43 251 -44 272 -14 22 31 20 81 -3
102 -12 11 -89 30 -220 55 -111 22 -204 41 -207 44 -7 6 158 145 187 156 35
14 31 15 152 -38z m4083 39 c37 -15 197 -151 187 -160 -4 -4 -87 -22 -183 -40
-96 -18 -189 -38 -207 -45 -67 -28 -47 -127 28 -133 19 -1 115 13 214 32 99
19 181 34 182 33 1 -2 -20 -43 -48 -92 -59 -108 -112 -160 -183 -179 -30 -9
-230 -26 -483 -42 -504 -32 -448 -42 -519 99 -40 78 -43 88 -27 94 10 4 239
105 508 224 270 120 493 218 497 219 4 0 19 -5 34 -10z m-2246 -97 c0 -15
-194 -413 -201 -413 -8 0 -262 266 -267 279 -4 11 118 64 204 90 54 17 165 38
257 50 4 1 7 -2 7 -6z m445 -28 c118 -28 269 -81 286 -101 9 -11 -15 -41 -132
-159 -78 -80 -145 -145 -148 -145 -5 0 -177 374 -199 431 -5 12 74 1 193 -26z
m-225 -267 c44 -98 80 -179 80 -180 0 -2 -81 -3 -180 -3 -99 0 -180 1 -180 2
0 16 186 371 192 365 4 -4 43 -87 88 -184z m-905 -60 c-3 -40 -8 -92 -11 -116
l-5 -42 -29 20 c-16 11 -43 26 -60 31 l-30 11 22 31 c27 40 108 137 114 137 2
0 2 -33 -1 -72z m362 -158 c12 -17 7 -20 -55 -41 -37 -12 -88 -32 -114 -45
-26 -13 -50 -24 -54 -24 -7 0 3 243 12 297 l6 31 96 -100 c53 -55 103 -109
109 -118z m1354 131 c46 -60 53 -81 26 -81 -7 0 -29 -11 -49 -25 l-36 -25 -6
68 c-4 37 -9 87 -11 111 -5 39 -3 42 12 30 9 -8 38 -43 64 -78z m-215 -84 c6
-84 10 -154 8 -156 -1 -1 -27 8 -56 22 -29 13 -82 35 -118 48 -36 12 -67 24
-69 26 -3 2 44 53 104 113 60 60 111 107 114 104 3 -3 11 -74 17 -157z m-1610
-172 c118 -126 109 -463 -16 -569 -38 -31 -45 -32 -87 -7 -44 27 -90 126 -102
221 -18 138 16 290 81 357 43 45 80 44 124 -2z m1972 10 c16 -13 42 -52 58
-87 28 -60 29 -70 28 -198 0 -145 -10 -190 -60 -261 -49 -72 -109 -72 -158 -1
-41 59 -58 120 -63 225 -5 88 -3 109 22 194 43 146 101 189 173 128z m-738
-25 c123 -25 256 -73 334 -120 l56 -34 0 -106 c0 -156 34 -271 108 -368 18
-23 23 -38 16 -46 -105 -138 -163 -332 -164 -542 l0 -70 -172 -171 c-115 -113
-190 -179 -223 -196 -171 -86 -373 -77 -521 22 -71 48 -391 379 -404 418 -5
15 -14 79 -20 140 -15 159 -59 291 -128 380 l-24 33 31 35 c73 83 102 175 108
343 l6 132 71 39 c121 67 266 110 436 131 121 14 370 5 490 -20z m1890 -7 c25
-23 143 -213 136 -220 -1 -1 -78 11 -172 28 -93 16 -184 30 -202 31 -43 2 -75
-30 -75 -72 0 -58 22 -68 226 -103 103 -17 187 -35 187 -39 0 -3 -37 -38 -82
-77 -88 -75 -144 -101 -212 -100 -23 0 -192 44 -376 98 l-335 97 -6 124 c-4
69 -12 139 -17 157 l-10 31 56 6 c32 3 210 15 397 27 187 11 358 24 380 29 64
13 73 11 105 -17z m-3897 -17 c235 -18 429 -35 432 -38 3 -3 1 -27 -6 -54 -6
-27 -11 -93 -11 -146 l0 -98 -67 -19 c-36 -11 -192 -57 -346 -101 -364 -106
-376 -105 -530 28 -67 56 -75 67 -59 73 10 5 100 22 199 39 148 25 183 34 198
51 39 47 7 123 -51 121 -17 0 -113 -15 -213 -32 -100 -17 -182 -30 -184 -28
-7 7 107 195 130 216 14 12 38 22 53 22 15 -1 219 -16 455 -34z m477 -528 c12
-23 30 -53 41 -66 l19 -24 -38 -28 c-123 -91 -263 -270 -336 -431 -23 -49 -33
-59 -83 -85 -83 -42 -159 -40 -275 5 -49 19 -88 38 -88 42 0 3 72 48 160 99
157 90 180 109 180 148 0 32 -38 72 -69 72 -17 0 -94 -38 -195 -96 -92 -53
-169 -94 -171 -92 -3 2 4 55 14 116 19 113 37 157 69 170 34 13 717 210 733
211 10 1 26 -16 39 -41z m2846 -64 c203 -58 375 -110 382 -116 7 -6 18 -20 24
-31 11 -21 49 -229 43 -236 -2 -2 -76 38 -163 88 -88 50 -170 91 -183 91 -34
0 -69 -38 -69 -75 0 -42 18 -57 175 -145 72 -40 138 -79 148 -85 16 -11 5 -17
-78 -50 -116 -45 -157 -51 -223 -35 -68 16 -111 57 -171 163 -90 159 -203 298
-308 378 l-31 24 41 68 c22 37 41 67 42 67 2 0 168 -48 371 -106z m-580 -156
c89 -106 151 -425 125 -646 -21 -172 -87 -440 -164 -657 -13 -36 -15 -38 -25
-19 -29 55 -127 405 -157 564 -58 306 50 790 175 790 10 0 31 -15 46 -32z
m349 -373 c76 -139 132 -334 185 -646 16 -95 27 -175 26 -177 -4 -3 -236 232
-286 290 l-32 37 18 98 c26 149 20 453 -13 551 -9 29 55 -68 102 -153z m-2701
55 c-19 -129 -17 -322 4 -448 l18 -104 -107 -116 c-59 -64 -130 -139 -158
-167 -60 -58 -59 -61 -31 113 43 262 98 476 156 602 35 75 123 224 129 218 2
-2 -3 -46 -11 -98z"/>
</g>
</svg>
