<?xml version="1.0" standalone="no"?>
<!DOCTYPE svg PUBLIC "-//W3C//DTD SVG 20010904//EN"
 "http://www.w3.org/TR/2001/REC-SVG-20010904/DTD/svg10.dtd">
<svg version="1.0" xmlns="http://www.w3.org/2000/svg"
 width="512.000000pt" height="512.000000pt" viewBox="0 0 512.000000 512.000000"
 preserveAspectRatio="xMidYMid meet">

<g transform="translate(0.000000,512.000000) scale(0.100000,-0.100000)"
fill="#000000" stroke="none">
<path d="M2435 4510 c-79 -26 -173 -98 -315 -240 -247 -246 -411 -505 -534
-842 l-17 -46 -124 59 c-305 146 -676 228 -988 217 -101 -3 -119 -7 -179 -35
-137 -64 -203 -159 -238 -339 -60 -314 -50 -648 30 -965 73 -294 223 -595 416
-842 32 -40 114 -128 183 -197 287 -285 615 -473 1001 -574 219 -57 325 -70
580 -71 219 0 225 -1 247 -22 31 -32 95 -32 128 1 23 23 26 24 173 18 806 -28
1550 370 1987 1063 290 461 399 1046 294 1590 -34 179 -101 274 -237 338 -60
28 -78 32 -179 35 -312 11 -683 -71 -989 -217 -83 -40 -126 -56 -129 -48 -51
146 -68 173 -121 183 -54 10 -113 -35 -114 -87 0 -14 20 -86 44 -160 230 -699
73 -1461 -414 -2004 -72 -81 -230 -228 -262 -246 -17 -9 -18 12 -18 373 l0
383 181 180 c100 99 187 194 194 210 28 64 -21 135 -92 135 -33 0 -48 -12
-160 -122 l-123 -122 0 230 0 229 165 165 c90 90 169 176 176 191 8 21 8 37
-1 63 -15 46 -44 66 -94 66 -36 0 -47 -8 -142 -102 l-104 -102 0 222 c0 239
-4 263 -51 288 -52 27 -115 8 -137 -41 -8 -17 -12 -96 -12 -242 l0 -216 -99
96 c-94 91 -103 97 -141 97 -59 0 -100 -42 -100 -101 0 -41 4 -46 170 -213
l170 -172 0 -229 0 -229 -123 122 c-114 112 -127 122 -161 122 -55 0 -96 -43
-96 -101 0 -42 3 -46 190 -234 l190 -191 0 -382 c0 -362 -1 -382 -17 -373 -10
6 -55 43 -101 84 -673 599 -871 1581 -483 2402 114 241 297 484 491 651 102
88 150 114 208 114 63 0 113 -27 212 -116 47 -42 96 -80 109 -86 36 -13 77 0
106 34 52 62 30 107 -111 227 -126 107 -181 132 -299 137 -61 3 -95 -1 -140
-16z m-1708 -1065 c249 -33 440 -90 647 -194 152 -76 141 -53 110 -241 -14
-87 -18 -165 -18 -325 0 -217 12 -329 53 -506 11 -46 19 -85 17 -86 -1 -1
-109 128 -240 288 -132 160 -248 297 -260 305 -11 7 -35 14 -54 14 -71 0 -117
-67 -89 -132 8 -18 75 -105 147 -192 l133 -159 -64 7 c-35 3 -101 9 -146 13
-81 6 -82 6 -112 -25 -50 -49 -35 -136 26 -160 15 -6 127 -20 247 -32 121 -11
223 -23 227 -26 9 -5 271 -322 281 -339 5 -7 -31 -7 -110 2 -184 19 -215 17
-251 -13 -26 -21 -31 -33 -31 -68 0 -51 20 -81 63 -94 17 -6 142 -21 276 -33
l243 -23 244 -295 244 -296 -83 -3 c-108 -4 -275 13 -417 44 -743 160 -1345
734 -1539 1465 -52 196 -64 294 -65 519 -1 389 46 552 172 590 45 14 224 11
349 -5z m4060 -18 c51 -36 80 -87 97 -178 81 -426 22 -869 -169 -1264 -311
-642 -924 -1073 -1632 -1145 -59 -6 -145 -10 -190 -8 l-83 3 246 298 c186 226
250 297 267 297 32 0 436 39 476 46 51 8 81 44 81 98 0 37 -5 48 -31 70 -36
30 -67 32 -251 13 -79 -9 -115 -9 -110 -2 9 16 272 334 280 339 4 2 106 14
227 26 121 11 233 26 248 32 61 24 76 111 26 160 -30 31 -31 31 -112 25 -45
-4 -111 -10 -146 -13 l-64 -7 133 159 c72 87 139 174 147 192 28 65 -18 132
-89 132 -19 0 -43 -7 -54 -14 -12 -8 -128 -145 -260 -305 -131 -160 -239 -289
-240 -288 -2 1 6 38 16 82 42 185 54 295 54 510 0 159 -4 238 -18 325 -30 180
-33 169 49 212 292 155 625 239 936 235 120 -2 128 -3 166 -30z"/>
<path d="M3154 3964 c-92 -45 -58 -184 44 -184 100 0 136 121 52 178 -39 26
-54 27 -96 6z"/>
</g>
</svg>
